<svg width="131" height="109" viewBox="0 0 131 109" fill="none" xmlns="http://www.w3.org/2000/svg">
<path d="M125.014 7.17905H97.0987V10.1696H125.014C126.409 10.1696 127.605 11.3656 127.605 12.7613V80.5513L2.99052 80.5522V12.7622C2.99052 11.3664 4.18654 10.1705 5.38349 10.1705L46.256 10.1696V7.17905H5.38349C2.39297 7.17905 0 9.77081 0 12.7613V87.3298C0 90.3204 2.39297 92.913 5.58321 92.913H46.6571V105.474H39.2803V108.465H91.7197V105.474H84.3429V92.913H125.417C128.407 92.913 131 90.5201 131 87.3298L130.998 12.7613C130.6 9.77081 128.007 7.17905 125.016 7.17905H125.014ZM80.9497 105.277H49.4477V92.7156H80.9497V105.277ZM125.014 89.7251H5.38372C3.98793 89.7251 2.99075 88.5291 2.99075 87.1334V83.3446H127.606V87.1334C127.606 88.728 126.409 89.7251 125.014 89.7251Z" fill="url(#paint0_linear_36_1564)"/>
<path d="M100.691 58.6212V65.9979C100.691 71.5811 105.276 75.9674 110.66 75.9674C116.243 75.9674 120.629 71.3814 120.629 65.9979V58.6212C120.629 53.8361 117.24 49.8486 112.654 48.8514C114.648 43.0694 113.452 41.2749 111.458 39.0817C110.262 37.8856 109.065 36.4899 109.065 32.5022L106.074 32.5013C106.074 37.6848 107.868 39.6792 109.264 41.075C110.66 42.4707 111.457 43.4679 109.464 48.6515C104.678 49.2499 100.69 53.4365 100.69 58.6209L100.691 58.6212ZM117.638 58.6212V65.9979C117.638 69.7866 114.448 72.976 110.66 72.976C106.871 72.976 103.682 69.7857 103.682 65.9979V58.6212C103.682 54.8324 106.872 51.6431 110.66 51.6431C114.448 51.6422 117.638 54.8324 117.638 58.6212Z" fill="url(#paint1_linear_36_1564)"/>
<path d="M109.263 55.0317H112.253V58.6207H109.263V55.0317Z" fill="url(#paint2_linear_36_1564)"/>
<path d="M41.8707 69.7852L51.0429 61.6103L41.8707 53.635L39.8773 55.8282L46.4569 61.6102L39.8773 67.3922L41.8707 69.7852Z" fill="url(#paint3_linear_36_1564)"/>
<path d="M19.3412 53.6362L10.3687 61.6115L19.3412 69.7864L21.3345 67.3935L14.755 61.6115L21.3345 55.8294L19.3412 53.6362Z" fill="url(#paint4_linear_36_1564)"/>
<path d="M38.7649 48.6443L25.2444 75.9899L22.5631 74.6646L36.0836 47.319L38.7649 48.6443Z" fill="url(#paint5_linear_36_1564)"/>
<path d="M50.4451 20.9354L45.0617 21.9325V31.1038L50.4451 32.1009C51.0436 34.0952 51.6412 35.8896 52.6383 37.4844L49.4481 42.0704L56.0276 48.4509L60.6136 45.2606C62.408 46.2578 64.2025 47.0551 65.997 47.4538L66.9942 52.8373H76.1654L77.1626 47.4538C79.1568 46.8553 80.9513 46.2578 82.5461 45.2606L87.132 48.4509L93.5125 41.8714L90.3223 37.2854C91.3194 35.6907 92.1168 33.6964 92.5154 31.9019L97.8989 30.9048V21.7335L92.5154 20.7363C91.917 18.7421 91.3194 16.9476 90.3223 15.3529L93.5125 10.7669L86.933 4.3864L82.347 7.57664C80.5526 6.57951 78.758 5.78217 76.9635 5.38349L75.9664 0H66.7951L65.798 5.38349C64.0035 5.98194 62.0093 6.57951 60.4145 7.57664L55.8285 4.3864L49.4481 10.9659L52.6383 15.5519C51.6412 17.1475 50.8438 19.1409 50.4451 20.9354ZM53.0369 22.5301C53.4356 20.3369 54.4327 18.1438 55.6287 16.3493L56.2271 15.552L53.4356 11.3645L56.2271 8.37398L60.4146 11.1655L61.2119 10.567C63.2062 9.371 65.1994 8.37386 67.3927 7.97525L68.3898 7.77546L69.1872 2.79073H73.3746L74.3718 7.77546L75.3689 7.97525C77.562 8.37393 79.7551 9.37104 81.7494 10.567L82.5467 11.1655L86.7342 8.37398L89.7247 11.3645L86.9332 15.552L87.5316 16.3493C88.7277 18.3436 89.7248 20.3368 90.1234 22.5301L90.3232 23.5272L95.3079 24.3245V28.512L90.3232 29.5091L90.1225 30.3065C89.7238 32.4996 88.7267 34.6927 87.5307 36.6869L86.9323 37.4843L89.7238 41.6717L86.7333 44.6623L82.5458 41.8708L81.7485 42.4692C79.954 43.6652 77.761 44.6624 75.5677 45.061H74.5706L73.7732 50.0457H69.5858L68.5886 45.061L67.5915 44.8612C65.3984 44.4625 63.2052 43.4654 61.4108 42.2694L60.6134 41.671L56.4259 44.4625L53.4354 41.472L56.2269 37.2845L55.6285 36.4872C54.4324 34.4929 53.4353 32.4996 53.0367 30.3064L52.8369 29.3093L47.8522 28.5119V24.3245L52.8369 23.3273L53.0369 22.5301Z" fill="url(#paint6_linear_36_1564)"/>
<path d="M71.5791 38.4823C78.1586 38.4823 83.5419 33.0988 83.5419 26.5195C83.5419 19.9402 78.1584 14.5567 71.5791 14.5567C64.9996 14.5567 59.6164 19.9402 59.6164 26.5195C59.6155 33.099 64.9989 38.4823 71.5791 38.4823ZM71.5791 17.547C76.5639 17.547 80.5516 21.5345 80.5516 26.5195C80.5516 31.5045 76.5641 35.492 71.5791 35.492C66.5944 35.492 62.6067 31.5045 62.6067 26.5195C62.6067 21.5345 66.5942 17.547 71.5791 17.547Z" fill="url(#paint7_linear_36_1564)"/>
<defs>
<linearGradient id="paint0_linear_36_1564" x1="131" y1="88.0841" x2="0.200718" y2="88.9281" gradientUnits="userSpaceOnUse">
<stop stop-color="#EB455F"/>
<stop offset="0.203937" stop-color="#FFB100"/>
</linearGradient>
<linearGradient id="paint1_linear_36_1564" x1="120.629" y1="67.2212" x2="100.72" y2="67.2667" gradientUnits="userSpaceOnUse">
<stop stop-color="#EB455F"/>
<stop offset="0.203937" stop-color="#FFB100"/>
</linearGradient>
<linearGradient id="paint2_linear_36_1564" x1="112.253" y1="57.8985" x2="109.267" y2="57.9109" gradientUnits="userSpaceOnUse">
<stop stop-color="#EB455F"/>
<stop offset="0.203937" stop-color="#FFB100"/>
</linearGradient>
<linearGradient id="paint3_linear_36_1564" x1="51.0429" y1="66.5355" x2="39.8941" y2="66.5739" gradientUnits="userSpaceOnUse">
<stop stop-color="#EB455F"/>
<stop offset="0.203937" stop-color="#FFB100"/>
</linearGradient>
<linearGradient id="paint4_linear_36_1564" x1="21.3345" y1="66.5367" x2="10.3852" y2="66.5738" gradientUnits="userSpaceOnUse">
<stop stop-color="#EB455F"/>
<stop offset="0.203937" stop-color="#FFB100"/>
</linearGradient>
<linearGradient id="paint5_linear_36_1564" x1="38.7649" y1="70.2207" x2="22.5874" y2="70.2663" gradientUnits="userSpaceOnUse">
<stop stop-color="#EB455F"/>
<stop offset="0.203937" stop-color="#FFB100"/>
</linearGradient>
<linearGradient id="paint6_linear_36_1564" x1="97.8989" y1="42.2054" x2="45.1417" y2="42.4686" gradientUnits="userSpaceOnUse">
<stop stop-color="#EB455F"/>
<stop offset="0.203937" stop-color="#FFB100"/>
</linearGradient>
<linearGradient id="paint7_linear_36_1564" x1="83.5419" y1="33.668" x2="59.6526" y2="33.7872" gradientUnits="userSpaceOnUse">
<stop stop-color="#EB455F"/>
<stop offset="0.203937" stop-color="#FFB100"/>
</linearGradient>
</defs>
</svg>
