<svg width="34" height="38" viewBox="0 0 34 38" fill="none" xmlns="http://www.w3.org/2000/svg">
<path d="M24.804 27.9183C24.3532 27.7191 23.8678 27.9706 23.3541 28.237C23.155 28.3481 22.9477 28.4426 22.7337 28.5197C22.6365 28.3083 22.4136 28.1861 22.1851 28.2192C21.8501 28.2771 21.5225 28.373 21.2086 28.5051C21.1839 28.4055 21.1314 28.3153 21.0575 28.2449C20.7377 27.9254 20.3704 28.1566 20.1246 28.3099C19.9907 28.3954 19.8527 28.4742 19.711 28.5454C20.3175 28.0608 20.7192 27.5869 20.7752 27.0635H20.7755C20.8119 26.7218 20.6871 26.3826 20.4383 26.1484C20.2805 25.9781 20.0697 25.8676 19.8412 25.8354C19.6128 25.8031 19.38 25.8508 19.182 25.9705C18.4811 26.3587 18.0225 27.4472 18.1468 28.3689C18.0131 28.4567 17.8797 28.543 17.7512 28.6259C17.4249 28.836 17.1447 29.0174 16.9407 29.175V29.1753C16.7122 29.3529 16.6693 29.684 16.845 29.9153C17.0205 30.1463 17.3483 30.1896 17.5768 30.012C17.7434 29.8825 18.0215 29.7044 18.3121 29.5159C18.3978 29.4607 18.4822 29.406 18.5647 29.3524L18.5649 29.3526C18.6689 29.4647 18.7953 29.5535 18.9354 29.6134C19.2681 29.7401 19.6369 29.7298 19.9621 29.5852C19.9795 29.6131 19.9991 29.6399 20.0205 29.6648C20.3264 30.0222 20.7512 29.8408 21.2432 29.631C21.4934 29.5189 21.75 29.4211 22.0112 29.338C22.0862 29.4127 22.1745 29.4726 22.2715 29.5148C22.7638 29.7298 23.3054 29.4488 23.8296 29.1769C24.0222 29.0662 24.2253 28.9755 24.4361 28.9059C24.6994 28.9852 24.9785 28.8447 25.0744 28.5845C25.1702 28.324 25.0502 28.0329 24.7998 27.9189L24.804 27.9183ZM19.2527 27.5588C19.2983 27.4145 19.3625 27.2772 19.4442 27.1502C19.5053 27.0432 19.5921 26.9536 19.6966 26.8894L19.7014 26.8943C19.7161 26.9076 19.7284 26.9233 19.7373 26.9409C19.7378 26.9439 19.7357 27.1331 19.2527 27.5588ZM12.0055 9.6912C12.0055 9.39985 12.2391 9.16374 12.5273 9.16374H20.8757C21.0166 9.15968 21.1532 9.21356 21.2542 9.31293C21.3555 9.4123 21.4125 9.54877 21.4125 9.69146C21.4125 9.83388 21.3555 9.97035 21.2542 10.0697C21.1532 10.1691 21.0166 10.223 20.8757 10.2189H12.5273C12.3888 10.2189 12.256 10.1634 12.1582 10.0643C12.0601 9.96547 12.0052 9.83118 12.0055 9.6912ZM23.0931 9.6912C23.0933 9.39985 23.3272 9.16374 23.6154 9.16374H25.1082C25.3908 9.1716 25.616 9.40554 25.616 9.69147C25.616 9.97713 25.3908 10.2111 25.1082 10.2189H23.6154C23.3269 10.2189 23.0931 9.98282 23.0931 9.6912ZM12.0055 12.4067C12.0052 12.2667 12.0601 12.1324 12.1582 12.0333C12.256 11.9345 12.3888 11.8787 12.5273 11.8787H25.1079C25.3905 11.8868 25.6158 12.1208 25.6158 12.4064C25.6158 12.6924 25.3905 12.9263 25.1079 12.9342H12.5273C12.2391 12.9342 12.0055 12.6981 12.0055 12.4067ZM12.0055 15.122C12.0055 14.8304 12.2391 14.5942 12.5273 14.594H16.8057C17.0942 14.594 17.3281 14.8304 17.3281 15.122C17.3281 15.4133 17.0942 15.6497 16.8057 15.6497H12.5273C12.3888 15.6497 12.256 15.5942 12.1582 15.4951C12.0601 15.396 12.0052 15.2619 12.0055 15.122ZM7.18254 20.5525C7.18254 20.2611 7.41637 20.0247 7.70458 20.0247H14.2758C14.5584 20.0326 14.7834 20.2665 14.7834 20.5525C14.7834 20.8381 14.5584 21.0721 14.2758 21.0802H7.70458C7.41637 21.0802 7.18254 20.8441 7.18254 20.5525ZM8.81294 23.2677C8.81294 23.559 8.57938 23.7954 8.29116 23.7957H7.70456C7.41635 23.7957 7.18251 23.5593 7.18251 23.2677C7.18251 22.9761 7.41635 22.7397 7.70456 22.7397H8.29116C8.57937 22.74 8.81294 22.9764 8.81294 23.2677ZM20.6039 23.7957H9.97891C9.69043 23.7957 9.45659 23.5593 9.45659 23.2677C9.45659 22.9761 9.69043 22.7397 9.97891 22.7397H20.6039C20.8924 22.7397 21.1259 22.9761 21.1259 23.2677C21.1259 23.5593 20.8924 23.7957 20.6039 23.7957ZM25.6302 23.2677C25.6302 23.559 25.3966 23.7954 25.1084 23.7957H22.2906C22.0024 23.7957 21.7685 23.5593 21.7685 23.2677C21.7685 22.9761 22.0024 22.7397 22.2906 22.7397H25.1084C25.3966 22.74 25.6302 22.9764 25.6302 23.2677ZM12.6154 17.3095H22.5259C22.6667 17.3054 22.8034 17.3593 22.9043 17.4587C23.0056 17.5581 23.0626 17.6945 23.0626 17.8372C23.0626 17.9796 23.0056 18.1164 22.9043 18.2157C22.8033 18.3151 22.6667 18.369 22.5259 18.3649H12.6133C12.4722 18.369 12.3358 18.3151 12.2346 18.2157C12.1336 18.1164 12.0765 17.9796 12.0765 17.8372C12.0765 17.6945 12.1336 17.5581 12.2346 17.4587C12.3358 17.3593 12.4722 17.3054 12.6133 17.3095H12.6154ZM7.18274 17.837C7.18274 17.5456 7.41658 17.3095 7.70479 17.3095H10.9255C11.0666 17.3054 11.2032 17.3593 11.3042 17.4587C11.4052 17.5581 11.4622 17.6945 11.4622 17.8372C11.4622 17.9796 11.4052 18.1164 11.3042 18.2157C11.2032 18.3151 11.0666 18.369 10.9255 18.3649H7.70479C7.41658 18.3649 7.18274 18.1286 7.18274 17.837ZM7.18274 13.091V12.5697C7.18274 12.2781 7.41658 12.0417 7.70479 12.0417C7.99326 12.0417 8.2271 12.2781 8.2271 12.5697V13.0912C8.2271 13.2163 8.42933 13.398 8.74325 13.398H9.26235C9.57762 13.398 9.7785 13.2161 9.7785 13.0912V12.5697C9.7785 12.4021 9.7785 12.3247 8.96238 12.2616C8.34042 12.2126 7.1838 12.1214 7.1838 10.901V10.3784C7.20576 10.0348 7.34879 9.71072 7.58692 9.46485C7.82504 9.21872 8.14245 9.06709 8.48183 9.0373V8.36554C8.48183 8.07419 8.71567 7.83781 9.00388 7.83781C9.29235 7.83781 9.52619 8.07419 9.52619 8.36554V9.03866C9.86502 9.06871 10.1819 9.22007 10.4197 9.46593C10.6576 9.71178 10.8006 10.0353 10.8229 10.3784V10.8999C10.8229 11.1912 10.589 11.4276 10.3005 11.4276C10.0123 11.4276 9.77849 11.1912 9.77849 10.8999V10.3784C9.77849 10.2533 9.57626 10.0719 9.26234 10.0719H8.74324C8.42797 10.0719 8.22709 10.2533 8.22709 10.3784V10.8999C8.22709 11.0675 8.22709 11.1449 9.04322 11.2083C9.66517 11.257 10.8218 11.348 10.8218 12.5686V13.0901V13.0898C10.799 13.4367 10.6536 13.7635 10.4114 14.0104C10.1696 14.2574 9.84761 14.4076 9.50473 14.4336V15.1206C9.50473 15.4122 9.2709 15.6486 8.98242 15.6486C8.69421 15.6486 8.46037 15.4122 8.46037 15.1206V14.4301C8.12475 14.3963 7.81217 14.243 7.57808 13.998C7.34397 13.7527 7.20389 13.4313 7.18273 13.0912L7.18274 13.091ZM33.8896 14.6167H33.8893C33.8561 14.3915 33.6833 14.213 33.461 14.1749C31.9401 13.8767 30.5299 13.1611 29.3848 12.1065V5.47896C29.3851 5.33898 29.3299 5.20468 29.2321 5.10558L24.3344 0.154339C24.2364 0.0555082 24.1038 0 23.9653 0H5.68171C5.00297 0.000812314 4.35233 0.273743 3.87261 0.75894C3.39289 1.24388 3.12286 1.90154 3.12211 2.5877V2.72254H2.56015H2.56042C1.88115 2.72281 1.23002 2.99602 0.750023 3.48148C0.27003 3.96695 0.000274282 4.6252 0 5.31184V35.4123C0.000803509 36.0984 0.270531 36.7561 0.750504 37.2413C1.23023 37.7263 1.88082 37.9992 2.5596 38H23.704C24.3825 37.9992 25.0334 37.7263 25.5131 37.2413C25.9931 36.7561 26.2631 36.0985 26.2636 35.4123V35.278H26.8255C27.5043 35.2769 28.1546 35.004 28.6346 34.5191C29.1144 34.0338 29.3844 33.3762 29.3849 32.6903V24.2843C30.9601 23.4431 32.2273 22.1139 33.0006 20.4917C33.8783 18.6695 34.1882 16.6208 33.8893 14.6166L33.8896 14.6167ZM24.4872 1.80161L27.6023 4.95064H26.003C25.6012 4.95037 25.2158 4.78872 24.9316 4.50143C24.6477 4.21415 24.4877 3.82479 24.4872 3.41837L24.4872 1.80161ZM25.2195 35.4115H25.2198C25.2192 35.8177 25.0593 36.2073 24.7751 36.4946C24.491 36.7819 24.1058 36.9433 23.704 36.9438H2.55962C2.15784 36.9433 1.77243 36.7816 1.48848 36.4943C1.20429 36.207 1.04464 35.8177 1.04411 35.4115V5.31109C1.04464 4.90494 1.20455 4.51555 1.48848 4.22858C1.77267 3.9413 2.15784 3.77965 2.55962 3.77911H3.12157L3.12131 32.6894C3.12211 33.3755 3.3921 34.0332 3.87208 34.5184C4.35206 35.0037 5.00267 35.2763 5.68173 35.2771H25.2195L25.2195 35.4115ZM26.8253 34.2212H5.6816C5.27981 34.2207 4.89461 34.0593 4.61046 33.772C4.32653 33.4848 4.16662 33.0957 4.16609 32.6895V2.587C4.16662 2.18085 4.32626 1.79146 4.61046 1.50421C4.89438 1.21693 5.27955 1.05528 5.6816 1.05474H23.4427V3.418C23.4435 4.10412 23.7135 4.76183 24.1935 5.24704C24.6732 5.73225 25.3238 6.00494 26.0026 6.0057H28.3404L28.3407 12.1058C27.1956 13.1604 25.7853 13.876 24.2645 14.1742C24.051 14.2113 23.8826 14.3781 23.8413 14.5933H19.5455C19.257 14.5933 19.0232 14.8297 19.0232 15.1213C19.0232 15.4127 19.257 15.649 19.5455 15.649H23.7383C23.6697 17.1477 23.9349 18.6429 24.5139 20.024H15.9625C15.6799 20.0319 15.4547 20.2658 15.4547 20.5518C15.4547 20.8374 15.6799 21.0714 15.9625 21.0795H25.0426C25.8202 22.4414 26.9642 23.5527 28.3417 24.2838V32.6897C28.3412 33.0959 28.1813 33.4855 27.8968 33.7728C27.6126 34.0598 27.2272 34.2212 26.8251 34.2214L26.8253 34.2212ZM28.8629 23.3677C26.1077 21.9749 24.4534 18.596 24.8207 15.1379H24.8212C26.3137 14.7794 27.6996 14.0649 28.8631 13.0541C30.0267 14.0651 31.4126 14.7797 32.9053 15.1379C33.2722 18.5961 31.6182 21.9747 28.8631 23.3677H28.8629ZM31.4819 16.3523C31.6857 16.5586 31.6857 16.8925 31.4819 17.0988L28.6853 19.9256C28.5875 20.0247 28.4546 20.0805 28.3162 20.0805C28.1774 20.0805 28.0446 20.0247 27.9468 19.9256L26.2443 18.2041C26.0405 17.9977 26.0408 17.6636 26.2449 17.4575C26.4487 17.2515 26.7795 17.2517 26.9834 17.4578L28.3173 18.8062L30.7424 16.3526C30.8402 16.2532 30.9733 16.1974 31.112 16.1971C31.2508 16.1971 31.3839 16.2529 31.4819 16.3523Z" fill="black"/>
</svg>
