<svg width="111" height="111" viewBox="0 0 111 111" fill="none" xmlns="http://www.w3.org/2000/svg">
<path d="M30.9307 80.0236C30.6084 79.7006 30.1711 79.5195 29.7145 79.5195C29.2588 79.5195 28.8214 79.7006 28.4991 80.0236L22.8442 85.6778L17.1807 80.0144V80.0151C16.5093 79.343 15.4205 79.343 14.7491 80.0151C14.077 80.6865 14.077 81.7753 14.7491 82.4467L20.4118 88.1102L14.7483 93.7736H14.7491C14.077 94.445 14.077 95.5338 14.7491 96.2052C15.4205 96.8773 16.5093 96.8773 17.1807 96.2052L22.8441 90.5425L28.5076 96.206V96.2052C29.179 96.8774 30.2677 96.8774 30.9392 96.2052C31.6113 95.5338 31.6113 94.445 30.9392 93.7736L25.2765 88.1102L30.9399 82.4467H30.9392C31.6036 81.7738 31.5998 80.6912 30.9307 80.0236Z" fill="url(#paint0_linear_36_1563)"/>
<path d="M22.8437 65.7668C16.9179 65.7668 11.2344 68.1208 7.04421 72.3111C2.854 76.5013 0.5 82.1847 0.5 88.1106C0.5 94.0365 2.854 99.7199 7.04421 103.91C11.2344 108.1 16.9179 110.454 22.8437 110.454C28.7696 110.454 34.4531 108.1 38.6433 103.91C42.8335 99.7199 45.1875 94.0365 45.1875 88.1106C45.1875 82.1847 42.8335 76.5013 38.6433 72.3111C34.4531 68.1208 28.7696 65.7668 22.8437 65.7668ZM22.8437 107.017C17.8295 107.017 13.0208 105.025 9.47502 101.479C5.92929 97.9336 3.9375 93.125 3.9375 88.1106C3.9375 83.0962 5.92948 78.2876 9.47502 74.7419C13.0208 71.1961 17.8293 69.2043 22.8437 69.2043C27.8582 69.2043 32.6668 71.1963 36.2125 74.7419C39.7582 78.2876 41.75 83.0962 41.75 88.1106C41.75 93.125 39.758 97.9336 36.2125 101.479C32.6668 105.025 27.8582 107.017 22.8437 107.017Z" fill="url(#paint1_linear_36_1563)"/>
<path d="M88.1562 65.7668C82.2304 65.7668 76.5469 68.1208 72.3567 72.3111C68.1665 76.5013 65.8125 82.1847 65.8125 88.1106C65.8125 94.0365 68.1665 99.7199 72.3567 103.91C76.5469 108.1 82.2304 110.454 88.1562 110.454C94.0821 110.454 99.7656 108.1 103.956 103.91C108.146 99.7199 110.5 94.0365 110.5 88.1106C110.5 82.1847 108.146 76.5013 103.956 72.3111C99.7656 68.1208 94.0821 65.7668 88.1562 65.7668ZM88.1562 107.017C83.142 107.017 78.3333 105.025 74.7875 101.479C71.2418 97.9336 69.25 93.125 69.25 88.1106C69.25 83.0962 71.242 78.2876 74.7875 74.7419C78.3333 71.1961 83.1418 69.2043 88.1562 69.2043C93.1707 69.2043 97.9793 71.1963 101.525 74.7419C105.071 78.2876 107.062 83.0962 107.062 88.1106C107.062 93.125 105.071 97.9336 101.525 101.479C97.9793 105.025 93.1707 107.017 88.1562 107.017Z" fill="url(#paint2_linear_36_1563)"/>
<path d="M89.1286 86.3054C86.0947 85.1284 84.2561 84.2859 84.2561 82.6185C84.2561 79.946 86.9201 79.224 88.4931 79.224C90.0661 79.224 92.5321 79.8854 92.5321 82.3776L92.5313 82.3784C92.5313 83.3275 93.3009 84.0972 94.2501 84.0972C95.1992 84.0972 95.9688 83.3275 95.9688 82.3784C95.9688 78.5887 93.09 76.3628 89.8756 75.8902V74.3602C89.8756 73.411 89.106 72.6414 88.1569 72.6414C87.2077 72.6414 86.4381 73.411 86.4381 74.3602V76.0275C83.4043 76.715 80.8177 78.9494 80.8177 82.6279C80.8177 86.7698 84.7362 88.2913 87.8814 89.5029C91.0267 90.7145 92.8827 91.5823 92.8827 93.3784H92.8835C92.9257 94.4105 92.4561 95.3971 91.629 96.0165C90.6675 96.6779 89.5213 97.0178 88.3549 96.9879C85.9832 96.9879 83.4304 95.8016 83.4304 93.2066C83.4304 92.2567 82.6608 91.4879 81.7117 91.4879C80.7625 91.4879 79.9929 92.2567 79.9929 93.2066C79.9929 97.2112 83.0006 99.6006 86.4381 100.245V101.86C86.4381 102.809 87.2077 103.579 88.1569 103.579C89.106 103.579 89.8756 102.809 89.8756 101.86V100.313C91.2591 100.122 92.5726 99.5906 93.6999 98.7665C95.3864 97.4981 96.3617 95.4969 96.321 93.3869C96.321 89.1154 92.3335 87.56 89.1286 86.3054Z" fill="url(#paint3_linear_36_1563)"/>
<path d="M67.6766 65.7668L66.31 67.1334H66.3108C65.6386 67.8048 65.6386 68.8936 66.3108 69.565C66.9822 70.2371 68.071 70.2371 68.7424 69.565L73.0393 65.2681C73.1198 65.1868 73.192 65.0978 73.2541 65.0018C73.2541 65.0018 73.2971 64.9159 73.3232 64.8729C73.3546 64.8177 73.3838 64.7602 73.4091 64.7011C73.4291 64.6451 73.4467 64.5875 73.4605 64.5292C73.4605 64.4778 73.4605 64.4348 73.5035 64.3834C73.5472 64.1617 73.5472 63.9345 73.5035 63.7128C73.5035 63.6614 73.5035 63.61 73.4605 63.567C73.4467 63.5087 73.4291 63.4511 73.4091 63.3951C73.3838 63.336 73.3546 63.2785 73.3232 63.2232C73.3232 63.2232 73.3232 63.1373 73.2541 63.0943C73.192 62.9984 73.1198 62.9094 73.0393 62.8281L68.7424 58.5312C68.071 57.859 66.9822 57.859 66.3108 58.5312C65.6386 59.2026 65.6386 60.2914 66.3108 60.9628L67.6766 62.3293H66.6714C65.4859 62.3025 64.361 61.7991 63.5523 60.9321C62.7436 60.0643 62.3185 58.9079 62.3745 57.7232V52.7988C62.3745 51.8496 61.6049 51.08 60.6558 51.08C59.7066 51.08 58.937 51.8496 58.937 52.7988V57.7148C58.8672 59.8156 59.6499 61.8559 61.1062 63.3721C62.5625 64.8883 64.569 65.7515 66.6714 65.7668L67.6766 65.7668Z" fill="url(#paint4_linear_36_1563)"/>
<path d="M50.3437 51.0799C49.3946 51.0799 48.625 51.8495 48.625 52.7986V57.7147C48.6833 58.9001 48.2597 60.0596 47.4502 60.9288C46.6415 61.7974 45.5151 62.303 44.328 62.3291H43.3228L44.6894 60.9626H44.6886C45.3608 60.2912 45.3608 59.2024 44.6886 58.531C44.0172 57.8588 42.9284 57.8588 42.257 58.531L37.9602 62.8279C37.8796 62.9092 37.8075 62.9982 37.7453 63.0941C37.7453 63.0941 37.7023 63.1801 37.6763 63.223C37.6448 63.2783 37.6156 63.3358 37.5903 63.3949C37.5704 63.4509 37.5527 63.5085 37.5389 63.5668C37.5389 63.6182 37.5389 63.6612 37.4959 63.7126C37.4522 63.9343 37.4522 64.1614 37.4959 64.3832C37.4959 64.4346 37.4959 64.486 37.5389 64.529C37.5527 64.5873 37.5704 64.6448 37.5903 64.7009C37.6156 64.7599 37.6448 64.8175 37.6763 64.8727C37.6763 64.8727 37.6762 64.9587 37.7453 65.0016C37.8075 65.0975 37.8796 65.1866 37.9602 65.2679L42.257 69.5648C42.9284 70.2369 44.0172 70.2369 44.6886 69.5648C45.3608 68.8934 45.3608 67.8046 44.6886 67.1332L43.3228 65.7666H44.328C46.4288 65.7513 48.4345 64.8888 49.8901 63.3749C51.3464 61.8603 52.1297 59.8223 52.0624 57.7231V52.7986C52.0624 52.3428 51.8813 51.9055 51.559 51.5832C51.2368 51.261 50.7995 51.0799 50.3437 51.0799Z" fill="url(#paint5_linear_36_1563)"/>
<path d="M79.5625 24.5168C79.5625 18.1353 77.0274 12.0146 72.5148 7.50201C68.0023 2.98945 61.8816 0.454346 55.5 0.454346C49.1184 0.454346 42.9977 2.98945 38.4852 7.50201C33.9726 12.0146 31.4375 18.1353 31.4375 24.5168C31.4375 30.8984 33.9726 37.0191 38.4852 41.5317C42.9977 46.0442 49.1184 48.5793 55.5 48.5793C61.8816 48.5793 68.0023 46.0442 72.5148 41.5317C77.0274 37.0191 79.5625 30.8984 79.5625 24.5168ZM55.5 3.89185C62.3565 3.89415 68.7642 7.30401 72.5962 12.9904C76.4281 18.676 77.1837 25.8948 74.6127 32.2512C73.1932 29.5173 70.8921 27.3429 68.0814 26.0806C69.7557 24.5483 70.7385 22.4037 70.8061 20.1347C70.8736 17.8658 70.0189 15.6668 68.4382 14.0378C66.8568 12.4096 64.6838 11.4903 62.4133 11.4903C60.1436 11.4903 57.9707 12.4095 56.3892 14.0378C54.8086 15.6668 53.9539 17.8658 54.0213 20.1347C54.088 22.4037 55.071 24.5483 56.7459 26.0806C55.2044 26.7766 53.8034 27.7495 52.6125 28.951C51.9979 28.44 51.3227 28.0065 50.6015 27.662C51.7394 26.422 52.3517 24.7876 52.3087 23.105C52.2665 21.4216 51.5721 19.8209 50.372 18.6402C49.1727 17.4593 47.5613 16.7895 45.8779 16.7734C44.1946 16.7572 42.5701 17.3949 41.3479 18.552C40.1256 19.709 39.3997 21.2959 39.3237 22.9777C39.2485 24.6596 39.8286 26.3054 40.9419 27.5676C38.9669 28.6311 37.387 30.3039 36.4386 32.3371C33.8336 25.9801 34.5656 18.7429 38.3899 13.0357C42.2141 7.32764 48.6295 3.89937 55.4998 3.89171L55.5 3.89185ZM57.442 19.9361C57.4397 18.6194 57.9615 17.3556 58.8922 16.4234C59.823 15.4919 61.0867 14.9686 62.4034 14.9694C63.7208 14.9701 64.9831 15.495 65.913 16.428C66.8429 17.3611 67.3632 18.6249 67.3593 19.9423C67.3555 21.259 66.8276 22.5204 65.893 23.4482C64.9577 24.3758 63.6917 24.8938 62.375 24.8869C61.066 24.8799 59.8122 24.3551 58.8884 23.4282C57.9646 22.5005 57.4443 21.2459 57.442 19.9361ZM42.7551 23.3137C42.7551 22.5027 43.0773 21.7239 43.6513 21.1506C44.2252 20.5767 45.0032 20.2544 45.8151 20.2544C46.6262 20.2544 47.4042 20.5767 47.9782 21.1506C48.5521 21.7238 48.8744 22.5026 48.8744 23.3137C48.8744 24.1248 48.5521 24.9036 47.9782 25.4768C47.4043 26.0507 46.6262 26.373 45.8151 26.373C45.0041 26.3707 44.2276 26.0477 43.6536 25.4745C43.0804 24.9013 42.7574 24.1248 42.7551 23.3137ZM38.897 36.7369C38.9101 34.9176 39.639 33.1774 40.9249 31.8906C42.2117 30.6046 43.9527 29.8756 45.772 29.8619C47.4908 30.033 49.1243 30.6921 50.481 31.7617C49.2618 33.8564 48.6211 36.2381 48.6249 38.662V43.9556C44.7354 42.5721 41.3477 40.0585 38.897 36.7369ZM55.4997 45.1418C54.348 45.1403 53.1978 45.0429 52.0622 44.8495V38.662C51.9924 35.2168 53.6475 31.965 56.4734 29.9938C59.2995 28.0226 62.9234 27.5936 66.1322 28.8498C69.3411 30.1058 71.7098 32.8811 72.4464 36.2473C68.5984 41.8125 62.2659 45.1364 55.4999 45.1417L55.4997 45.1418Z" fill="url(#paint6_linear_36_1563)"/>
<defs>
<linearGradient id="paint0_linear_36_1563" x1="31.4433" y1="93.2487" x2="14.2711" y2="93.3343" gradientUnits="userSpaceOnUse">
<stop stop-color="#EB455F"/>
<stop offset="0.203937" stop-color="#FFB100"/>
</linearGradient>
<linearGradient id="paint1_linear_36_1563" x1="45.1875" y1="101.462" x2="0.567723" y2="101.685" gradientUnits="userSpaceOnUse">
<stop stop-color="#EB455F"/>
<stop offset="0.203937" stop-color="#FFB100"/>
</linearGradient>
<linearGradient id="paint2_linear_36_1563" x1="110.5" y1="101.462" x2="65.8802" y2="101.685" gradientUnits="userSpaceOnUse">
<stop stop-color="#EB455F"/>
<stop offset="0.203937" stop-color="#FFB100"/>
</linearGradient>
<linearGradient id="paint3_linear_36_1563" x1="96.3223" y1="97.3537" x2="80.0174" y2="97.3967" gradientUnits="userSpaceOnUse">
<stop stop-color="#EB455F"/>
<stop offset="0.203937" stop-color="#FFB100"/>
</linearGradient>
<linearGradient id="paint4_linear_36_1563" x1="73.5363" y1="66.2481" x2="58.9547" y2="66.3041" gradientUnits="userSpaceOnUse">
<stop stop-color="#EB455F"/>
<stop offset="0.203937" stop-color="#FFB100"/>
</linearGradient>
<linearGradient id="paint5_linear_36_1563" x1="52.0664" y1="66.2479" x2="37.4851" y2="66.3039" gradientUnits="userSpaceOnUse">
<stop stop-color="#EB455F"/>
<stop offset="0.203937" stop-color="#FFB100"/>
</linearGradient>
<linearGradient id="paint6_linear_36_1563" x1="79.5625" y1="38.8956" x2="31.5104" y2="39.1354" gradientUnits="userSpaceOnUse">
<stop stop-color="#EB455F"/>
<stop offset="0.203937" stop-color="#FFB100"/>
</linearGradient>
</defs>
</svg>
