<svg width="34" height="34" viewBox="0 0 34 34" fill="none" xmlns="http://www.w3.org/2000/svg">
<path d="M6.23263 0.000252975C5.30064 0.000252975 4.53367 0.76729 4.53367 1.69921V19.8325C4.53367 20.5889 5.66804 20.5889 5.66804 19.8325V5.6691L28.3315 5.66885V19.8322C28.3143 20.6048 29.4823 20.6048 29.4648 19.8322V1.69896C29.4648 0.766972 28.6991 0 27.7671 0L6.23263 0.000252975ZM6.23263 1.13462H27.7673C28.0911 1.13462 28.3317 1.37545 28.3317 1.699V4.53459H5.66822V1.699C5.66822 1.37519 5.90908 1.13462 6.23263 1.13462ZM7.367 2.26691C7.05407 2.26691 6.80034 2.52065 6.80034 2.83358C6.80034 3.1465 7.05407 3.40024 7.367 3.40024C7.67993 3.40024 7.93367 3.1465 7.93367 2.83358C7.93367 2.52065 7.67993 2.26691 7.367 2.26691ZM9.63368 2.26691C9.32075 2.26691 9.06701 2.52065 9.06701 2.83358C9.06701 3.1465 9.32075 3.40024 9.63368 3.40024C9.94661 3.40024 10.2003 3.1465 10.2003 2.83358C10.2003 2.52065 9.94661 2.26691 9.63368 2.26691ZM11.9003 2.26691C11.5874 2.26691 11.3337 2.52065 11.3337 2.83358C11.3337 3.1465 11.5874 3.40024 11.9003 3.40024C12.2133 3.40024 12.467 3.1465 12.467 2.83358C12.467 2.52065 12.2133 2.26691 11.9003 2.26691ZM19.8046 2.26792C19.0396 2.32004 19.0917 3.41997 19.8311 3.40125H26.6337C27.3727 3.38405 27.3727 2.28437 26.6337 2.26792H19.8046ZM1.70227 3.40125C0.77028 3.40125 0 4.16699 0 5.09898V25.5002C0 26.4322 0.770344 27.1991 1.70227 27.1991H32.301C33.233 27.1991 34 26.4324 34 25.5002V5.09898C34 4.16699 33.233 3.40125 32.301 3.40125H31.1677C30.3951 3.38405 30.3951 4.55181 31.1677 4.53458H32.301C32.6248 4.53458 32.8654 4.77542 32.8654 5.09896V21.5348H1.13332V5.09896C1.13332 4.77516 1.37846 4.53458 1.70227 4.53458H2.83107C3.60368 4.55178 3.60368 3.38402 2.83107 3.40125H1.70227ZM18.7068 7.92472C18.4577 7.92295 18.2368 8.08435 18.1624 8.32215L14.7614 18.5208C14.5216 19.238 15.5975 19.5977 15.8373 18.8805L19.2383 8.67799C19.3666 8.31092 19.0956 7.92689 18.7071 7.92436L18.7068 7.92472ZM21.1706 11.2008L24.0482 13.6012L21.1706 15.9984C20.5558 16.4798 21.315 17.388 21.8977 16.8684L25.2944 14.0361C25.5656 13.8097 25.5656 13.3928 25.2944 13.1661L21.8977 10.3295C21.7962 10.2425 21.6672 10.1944 21.5048 10.1947C20.9692 10.2415 20.7749 10.8805 21.1706 11.2008ZM12.4523 10.1959C12.3248 10.2002 12.2021 10.2473 12.1047 10.3297L8.70472 13.1664C8.43352 13.393 8.43352 13.8097 8.70472 14.0364L12.1047 16.8687C12.6896 17.4133 13.4703 16.4748 12.8285 15.9986L9.95113 13.6012L12.8288 11.2007C13.2474 10.8579 12.9935 10.1792 12.4526 10.1959L12.4523 10.1959ZM1.13321 22.669L32.8653 22.6688V25.4998C32.8653 25.8236 32.6245 26.0642 32.3009 26.0642L1.70215 26.0644C1.37834 26.0644 1.13321 25.8236 1.13321 25.5001V22.669ZM18.1643 23.8013L15.839 23.8023C15.1168 23.8886 15.1651 24.9119 15.8655 24.9314H18.1332C18.9114 25.0002 18.9762 23.817 18.1643 23.8013ZM13.8213 28.288C13.5938 28.2838 13.3854 28.4148 13.2923 28.6222C13.0193 29.2076 12.5305 29.8909 11.6864 30.599L10.7666 30.5987C9.83457 30.5987 9.06882 31.37 9.06882 32.302V33.431C9.06781 33.744 9.32028 33.9987 9.63321 34H24.3653C24.68 34.001 24.9352 33.7458 24.9342 33.431V32.302C24.9342 31.37 24.1639 30.5987 23.232 30.5987H22.3134C21.4692 29.8909 20.9802 29.2074 20.7075 28.622C20.6116 28.409 20.395 28.2769 20.1618 28.2888C19.757 28.3103 19.5041 28.7361 19.6804 29.1011C19.9012 29.5749 20.2387 30.0832 20.6931 30.5985L13.3063 30.5987C13.7606 30.0834 14.0981 29.5752 14.319 29.1014C14.4989 28.7298 14.2337 28.2966 13.8209 28.2878L13.8213 28.288ZM10.7666 31.7333H23.232C23.5558 31.7333 23.8009 31.9784 23.8009 32.3022V32.8666H10.2022V32.3022C10.2022 31.9784 10.443 31.7333 10.7666 31.7333Z" fill="black"/>
</svg>
