<svg width="133" height="122" viewBox="0 0 133 122" fill="none" xmlns="http://www.w3.org/2000/svg">
<path d="M16.5064 111.036H3.5316C1.58132 111.036 0 109.455 0 107.505V13.3418C0 11.3915 1.58127 9.8102 3.5316 9.8102H62.302C63.1173 9.8102 63.7791 10.472 63.7791 11.2874C63.7791 12.1038 63.1173 12.7656 62.302 12.7656H3.5316C3.2574 12.7728 3.03681 12.9934 3.02961 13.2675V107.504C3.02961 107.782 3.25433 108.006 3.5316 108.006H16.5064C17.3228 108.006 17.9846 108.668 17.9846 109.485C17.9846 110.301 17.3228 110.963 16.5064 110.963V111.036Z" fill="#0F1823"/>
<path d="M121.03 111.036H52.5059C51.6895 111.036 51.0277 110.376 51.0277 109.559C51.0277 108.743 51.6895 108.081 52.5059 108.081H121.03C121.309 108.081 121.539 107.858 121.547 107.579V32.6561C121.547 31.8397 122.208 31.1789 123.024 31.1789C123.841 31.1789 124.502 31.8397 124.502 32.6561V107.505C124.494 109.43 122.953 110.996 121.03 111.037L121.03 111.036Z" fill="#0F1823"/>
<path d="M100.341 12.8388H77.7908C76.9744 12.8388 76.3126 12.1771 76.3126 11.3607C76.3126 10.5442 76.9744 9.88246 77.7908 9.88246H100.341C101.157 9.88246 101.819 10.5442 101.819 11.3607C101.819 12.1771 101.157 12.8388 100.341 12.8388Z" fill="#0F1823"/>
<path d="M106.12 33.5273H1.55192C0.711812 33.5273 0.0304565 32.846 0.0304565 32.0049C0.0304565 31.1647 0.711812 30.4834 1.55192 30.4834H106.12C106.96 30.4834 107.641 31.1647 107.641 32.0049C107.641 32.846 106.96 33.5273 106.12 33.5273Z" fill="#0F1823"/>
<path d="M15.9153 21.5732C15.9153 22.969 14.7835 24.1008 13.3878 24.1008C11.9931 24.1008 10.8613 22.9689 10.8613 21.5732C10.8613 20.1775 11.9931 19.0467 13.3878 19.0467C14.7835 19.0467 15.9153 20.1775 15.9153 21.5732Z" fill="#0F1823"/>
<path d="M25.2411 21.5732C25.2411 22.969 24.1092 24.1008 22.7135 24.1008C21.3188 24.1008 20.187 22.9689 20.187 21.5732C20.187 20.1775 21.3189 19.0467 22.7135 19.0467C24.1092 19.0467 25.2411 20.1775 25.2411 21.5732Z" fill="#0F1823"/>
<path d="M34.58 21.5732C34.58 22.969 33.4492 24.1008 32.0535 24.1008C30.6578 24.1008 29.526 22.9689 29.526 21.5732C29.526 20.1775 30.6578 19.0467 32.0535 19.0467C33.4493 19.0467 34.58 20.1775 34.58 21.5732Z" fill="#0F1823"/>
<path d="M32.052 80.5362C31.2356 80.5362 30.5738 79.8745 30.5738 79.058V53.7001C30.5738 52.8836 31.2356 52.2219 32.052 52.2219C32.8684 52.2219 33.5291 52.8836 33.5291 53.7001V79.0137C33.5415 79.4137 33.391 79.8013 33.1127 80.0878C32.8344 80.3744 32.4519 80.5362 32.052 80.5362Z" fill="#0F1823"/>
<path d="M23.9111 42.5285H9.1334C8.29637 42.5285 7.6181 41.8503 7.6181 41.0132C7.6181 40.1772 8.29637 39.499 9.1334 39.499H23.9111C24.7471 39.499 25.4253 40.1772 25.4253 41.0132C25.4253 41.8503 24.7471 42.5285 23.9111 42.5285Z" fill="#0F1823"/>
<path d="M21.0584 60.5573H9.11754C8.27743 60.5573 7.59607 59.8749 7.59607 59.0348C7.59607 58.1937 8.27743 57.5123 9.11754 57.5123H21.0584C21.8986 57.5123 22.5799 58.1937 22.5799 59.0348C22.5799 59.8749 21.8986 60.5573 21.0584 60.5573Z" fill="#0F1823"/>
<path d="M23.9111 69.1864H9.1334C8.29637 69.1864 7.6181 68.5082 7.6181 67.6711C7.6181 66.8351 8.29637 66.1569 9.1334 66.1569H23.9111C24.7471 66.1569 25.4253 66.8351 25.4253 67.6711C25.4253 68.5082 24.7471 69.1864 23.9111 69.1864Z" fill="#0F1823"/>
<path d="M16.5064 78.9397H9.11754C8.27743 78.9397 7.59607 78.2573 7.59607 77.4172C7.59607 76.5761 8.27743 75.8947 9.11754 75.8947H16.5064C17.3475 75.8947 18.0289 76.5761 18.0289 77.4172C18.0289 78.2573 17.3475 78.9397 16.5064 78.9397Z" fill="#0F1823"/>
<path d="M16.5064 51.5429H9.11754C8.28154 51.5429 7.60327 50.8647 7.60327 50.0276C7.60327 49.1917 8.28154 48.5134 9.11754 48.5134H16.5064C17.3434 48.5134 18.0217 49.1917 18.0217 50.0276C18.0217 50.8647 17.3434 51.5429 16.5064 51.5429Z" fill="#0F1823"/>
<path d="M102.573 48.6454H47.8958C47.0588 48.6454 46.3815 47.9672 46.3815 47.1302C46.3815 46.2942 47.0588 45.6159 47.8958 45.6159H102.573C103.41 45.6159 104.089 46.2942 104.089 47.1302C104.089 47.9672 103.41 48.6454 102.573 48.6454Z" fill="#0F1823"/>
<path d="M69.0121 60.4386H47.8507C47.0343 60.4386 46.3725 59.7768 46.3725 58.9604C46.3725 58.145 47.0343 57.4832 47.8507 57.4832H69.0121C69.8285 57.4832 70.4903 58.145 70.4903 58.9604C70.4903 59.7768 69.8285 60.4386 69.0121 60.4386Z" fill="#0F1823"/>
<path d="M90.1442 60.4386H77.2726C76.4561 60.4386 75.7944 59.7768 75.7944 58.9604C75.7944 58.145 76.4561 57.4832 77.2726 57.4832H90.1442C90.9596 57.4832 91.6214 58.145 91.6214 58.9604C91.6214 59.7768 90.9596 60.4386 90.1442 60.4386Z" fill="#0F1823"/>
<path d="M106.695 73.0445H47.8509C47.0098 73.0445 46.3284 72.3621 46.3284 71.522C46.3284 70.6808 47.0098 69.9995 47.8509 69.9995H106.695C107.535 69.9995 108.218 70.6808 108.218 71.522C108.218 72.3621 107.535 73.0445 106.695 73.0445Z" fill="#0F1823"/>
<path d="M77.2717 84.8191H47.8483C47.0319 84.8191 46.3701 84.1573 46.3701 83.342C46.3701 82.5255 47.0319 81.8638 47.8483 81.8638H77.2717C78.0882 81.8638 78.7499 82.5255 78.7499 83.342C78.7499 84.1573 78.0882 84.8191 77.2717 84.8191Z" fill="#0F1823"/>
<path d="M34.58 121.602C27.8345 121.597 21.463 118.501 17.2912 113.199C13.1194 107.898 11.6084 100.977 13.1896 94.4188C14.7719 87.8607 19.2735 82.3903 25.4036 79.5741C31.5337 76.7589 38.6164 76.9083 44.622 79.9802C50.6275 83.0522 54.8941 88.708 56.1979 95.3269C57.5019 101.946 55.7 108.796 51.3089 113.917C51.0522 114.229 50.6811 114.423 50.2791 114.452C49.8771 114.483 49.4803 114.348 49.1803 114.08C48.8648 113.824 48.6679 113.449 48.637 113.043C48.6061 112.638 48.7442 112.238 49.0184 111.937C52.8593 107.491 54.4281 101.518 53.2675 95.7586C52.1069 89.9985 48.3474 85.0989 43.0841 82.488C37.8198 79.8769 31.6441 79.847 26.356 82.4076C21.068 84.9681 17.2612 89.8315 16.0449 95.5792C14.8296 101.328 16.3408 107.316 20.1394 111.798C23.938 116.281 29.5971 118.755 35.4665 118.498C38.3941 118.372 41.2493 117.557 43.8016 116.119C44.5325 115.711 45.455 115.973 45.8633 116.703C46.2715 117.434 46.0096 118.356 45.2798 118.764C42.342 120.445 39.0526 121.417 35.6738 121.602L34.58 121.602Z" fill="#0F1823"/>
<path d="M25.7714 97.9581C26.9394 97.9581 27.5001 97.1746 27.5001 95.7119V91.6774C27.364 90.6733 27.6795 89.6611 28.3608 88.9108C29.0422 88.1614 30.0205 87.7511 31.0327 87.7913H33.1459V90.5692H32.0821C31.1657 90.5692 30.7224 91.2042 30.7224 92.3422V96.1995C30.7224 98.0766 29.7473 99.1548 28.4907 99.3619C29.9576 99.666 30.9389 101.055 30.7369 102.539V106.396C30.7369 107.52 31.1801 108.169 32.0965 108.169H33.1603V110.888H31.0327C28.8165 110.888 27.5301 109.41 27.5301 107.002V102.968C27.5301 101.489 26.9395 100.736 25.8014 100.736H25.6241V97.958L25.7714 97.9581Z" fill="#0F1823"/>
<path d="M43.5786 100.737H43.4013C42.2633 100.737 41.6726 101.505 41.6726 102.968V107.003C41.6726 109.397 40.3872 110.889 38.1701 110.889H36.0126V108.17H37.0619C37.9928 108.17 38.436 107.52 38.436 106.397V102.54C38.2742 101.086 39.238 99.7462 40.6677 99.4369C39.4112 99.2895 38.436 98.1515 38.436 96.2745V92.2988C38.436 91.1608 37.9928 90.5258 37.0619 90.5258H36.0126V87.7922H38.1257C39.1401 87.7479 40.1224 88.156 40.8079 88.9065C41.4924 89.6569 41.8088 90.6723 41.6727 91.6784V95.7129C41.6727 97.1911 42.2345 97.9292 43.4014 97.9591H43.5787L43.5786 100.737Z" fill="#0F1823"/>
<path d="M115.118 36.2164C110.377 36.2164 105.829 34.3331 102.476 30.9798C99.1213 27.6255 97.238 23.0777 97.238 18.3359C97.238 13.593 99.1213 9.0452 102.476 5.69198C105.829 2.33877 110.377 0.454346 115.118 0.454346C119.861 0.454346 124.409 2.33866 127.762 5.69198C131.116 9.0452 133 13.593 133 18.3359C132.996 23.0766 131.11 27.6223 127.758 30.9748C124.406 34.328 119.86 36.2124 115.119 36.2164H115.118ZM115.118 3.49961C111.199 3.49961 107.441 5.05715 104.669 7.82789C101.898 10.5998 100.341 14.358 100.341 18.2773C100.341 22.1966 101.898 25.9559 104.669 28.7267C107.441 31.4986 111.199 33.055 115.118 33.055C119.038 33.055 122.797 31.4985 125.569 28.7267C128.34 25.9559 129.896 22.1966 129.896 18.2773C129.896 14.358 128.34 10.5998 125.569 7.82789C122.797 5.05707 119.039 3.49961 115.118 3.49961Z" fill="#0F1823"/>
<path d="M120.705 25.5474C120.063 25.5835 119.471 25.2 119.242 24.599C119.012 23.9981 119.198 23.3177 119.701 22.9167L123.809 18.8233L119.701 14.7299C119.105 14.1341 119.105 13.1682 119.701 12.5724C120.297 11.9766 121.263 11.9766 121.858 12.5724L126.454 17.1833V17.1823C126.878 17.6214 127.107 18.2131 127.09 18.8234C127.093 19.4387 126.848 20.0304 126.409 20.4634L121.814 25.0743C121.522 25.3732 121.123 25.5432 120.705 25.5474Z" fill="#0F1823"/>
<path d="M109.548 25.4603C109.143 25.4665 108.752 25.3057 108.469 25.0171L103.873 20.4062C103.432 19.9742 103.187 19.3826 103.193 18.7651C103.19 18.1497 103.435 17.558 103.873 17.1251L108.469 12.5297C109.06 11.9381 110.02 11.9381 110.612 12.5297C111.203 13.1214 111.203 14.0801 110.612 14.6718L106.518 18.7652L110.612 22.8729V22.8739C110.905 23.1522 111.071 23.5398 111.071 23.9449C111.071 24.35 110.905 24.7376 110.612 25.017C110.331 25.3025 109.948 25.4624 109.548 25.4603Z" fill="#0F1823"/>
<path d="M113.316 26.537C113.184 26.5514 113.05 26.5514 112.917 26.537C112.52 26.4411 112.18 26.1855 111.979 25.8298C111.777 25.4742 111.732 25.0506 111.853 24.6599L115.888 10.045C115.984 9.64814 116.239 9.30797 116.595 9.10593C116.951 8.90493 117.374 8.85957 117.765 8.98121C118.544 9.19046 119.011 9.98625 118.813 10.7696L114.779 25.3845H114.78C114.626 26.0659 114.015 26.5473 113.316 26.537Z" fill="#0F1823"/>
<path d="M72.0125 12.8388H68.4656H68.4666C67.6502 12.8388 66.9884 12.1771 66.9884 11.3607C66.9884 10.5442 67.6502 9.88246 68.4666 9.88246H72.0135H72.0125C72.8289 9.88246 73.4907 10.5442 73.4907 11.3607C73.4907 12.1771 72.8289 12.8388 72.0125 12.8388Z" fill="#0F1823"/>
<path d="M32.052 48.6455C31.2356 48.6455 30.5738 47.9837 30.5738 47.1673V32.0051C30.5738 31.1897 31.2356 30.5279 32.052 30.5279C32.8684 30.5279 33.5291 31.1897 33.5291 32.0051V47.1229C33.5415 47.5229 33.391 47.9105 33.1127 48.197C32.8344 48.4836 32.4519 48.6455 32.052 48.6455Z" fill="#0F1823"/>
</svg>
