<svg width="34" height="41" viewBox="0 0 34 41" fill="none" xmlns="http://www.w3.org/2000/svg">
<path fill-rule="evenodd" clip-rule="evenodd" d="M3.12801 0.668518C1.55992 0.668518 0.288727 1.93971 0.288727 3.50781V16.8222C0.288727 18.3903 1.55992 19.6615 3.12801 19.6615H30.7971C32.3652 19.6615 33.6364 18.3903 33.6364 16.8222V3.50781C33.6364 1.93971 32.3652 0.668518 30.7971 0.668518H3.12801ZM3.0607 2.261H30.7544C31.3407 2.261 31.8159 2.73624 31.8159 3.32248V17.0075C31.8159 17.5937 31.3407 18.0689 30.7544 18.0689H3.0607C2.47446 18.0689 1.99922 17.5937 1.99922 17.0075V3.32248C1.99922 2.73624 2.47446 2.261 3.0607 2.261ZM1.64539 3.32248C1.64539 2.54083 2.27905 1.90718 3.0607 1.90718H30.7544C31.5361 1.90718 32.1698 2.54083 32.1698 3.32248V17.0075C32.1698 17.7891 31.5361 18.4228 30.7544 18.4228H3.0607C2.27905 18.4228 1.64539 17.7891 1.64539 17.0075V3.32248Z" fill="#6C00FF"/>
<rect x="0.288727" y="11.9739" width="15.1491" height="28.0372" rx="2.83929" fill="#FFB100"/>
<rect x="1.09419" y="12.7794" width="13.5382" height="26.4263" rx="2.16153" fill="#FFB100" stroke="white" stroke-width="0.254298"/>
<rect x="5.71529" y="13.7825" width="4.71901" height="1.2584" rx="0.629201" fill="white"/>
<path d="M19.0018 34.3482C18.088 35.9059 15.836 35.9059 14.9221 34.3482L7.02602 20.8888C6.10109 19.3122 7.23799 17.3271 9.06586 17.3271L24.8581 17.3271C26.686 17.3271 27.8229 19.3122 26.8979 20.8888L19.0018 34.3482Z" fill="#EB455F" stroke="white" stroke-width="0.356017"/>
</svg>
