<svg width="241" height="48" viewBox="0 0 241 48" fill="none" xmlns="http://www.w3.org/2000/svg">
<path d="M71.1887 15.926H56.9859V22.6284H68.1965V27.0568H56.9859V37.8286H51.4803V11.4976H71.1887V15.926ZM71.1453 37.8286V17.8808H75.8929L76.252 21.7906C76.7839 20.4076 77.5552 19.3437 78.5659 18.599C79.6032 17.8542 80.8932 17.4819 82.4358 17.4819C82.8879 17.4819 83.3002 17.5218 83.6726 17.6016C84.0449 17.6814 84.3508 17.7878 84.5901 17.9207L83.9518 22.5087C83.6858 22.4023 83.3534 22.3225 82.9544 22.2693C82.5821 22.2162 82.09 22.1896 81.4783 22.1896C80.6804 22.1896 79.9091 22.389 79.1644 22.788C78.4196 23.1604 77.8079 23.7455 77.3292 24.5434C76.8504 25.3147 76.611 26.2988 76.611 27.4957V37.8286H71.1453ZM93.6508 38.2276C91.5496 38.2276 89.7144 37.8153 88.1452 36.9908C86.6026 36.1663 85.4057 34.9827 84.5546 33.4401C83.7035 31.8975 83.278 30.0357 83.278 27.8547C83.278 25.6738 83.7035 23.812 84.5546 22.2693C85.4057 20.7267 86.5893 19.5432 88.1053 18.7186C89.6479 17.8941 91.4033 17.4819 93.3715 17.4819C95.3929 17.4819 97.1084 17.8941 98.5181 18.7186C99.9277 19.5166 101.005 20.6203 101.75 22.03C102.494 23.413 102.867 24.9955 102.867 26.7775C102.867 27.3095 102.853 27.8148 102.827 28.2936C102.8 28.7723 102.76 29.1979 102.707 29.5702H86.7888V25.7802H100.313L97.6802 26.7377C97.6802 25.062 97.2946 23.7721 96.5233 22.8678C95.7786 21.9635 94.7147 21.5113 93.3316 21.5113C92.3209 21.5113 91.4432 21.7507 90.6985 22.2295C89.9804 22.7082 89.4352 23.4263 89.0628 24.3838C88.6905 25.3147 88.5043 26.4983 88.5043 27.9345C88.5043 29.3442 88.7038 30.5144 89.1027 31.4453C89.5283 32.3496 90.1134 33.0278 90.8581 33.48C91.6294 33.9321 92.547 34.1582 93.6109 34.1582C94.7812 34.1582 95.7254 33.9321 96.4435 33.48C97.1616 33.0278 97.7201 32.4028 98.1191 31.6049L102.468 33.2805C102.042 34.3178 101.391 35.2088 100.513 35.9535C99.6617 36.6982 98.6377 37.2701 97.4409 37.669C96.2706 38.0414 95.0072 38.2276 93.6508 38.2276ZM113.563 38.2276C111.462 38.2276 109.626 37.8153 108.057 36.9908C106.515 36.1663 105.318 34.9827 104.467 33.4401C103.615 31.8975 103.19 30.0357 103.19 27.8547C103.19 25.6738 103.615 23.812 104.467 22.2693C105.318 20.7267 106.501 19.5432 108.017 18.7186C109.56 17.8941 111.315 17.4819 113.283 17.4819C115.305 17.4819 117.02 17.8941 118.43 18.7186C119.84 19.5166 120.917 20.6203 121.662 22.03C122.406 23.413 122.779 24.9955 122.779 26.7775C122.779 27.3095 122.765 27.8148 122.739 28.2936C122.712 28.7723 122.672 29.1979 122.619 29.5702H106.701V25.7802H120.225L117.592 26.7377C117.592 25.062 117.207 23.7721 116.435 22.8678C115.69 21.9635 114.627 21.5113 113.244 21.5113C112.233 21.5113 111.355 21.7507 110.61 22.2295C109.892 22.7082 109.347 23.4263 108.975 24.3838C108.602 25.3147 108.416 26.4983 108.416 27.9345C108.416 29.3442 108.616 30.5144 109.015 31.4453C109.44 32.3496 110.025 33.0278 110.77 33.48C111.541 33.9321 112.459 34.1582 113.523 34.1582C114.693 34.1582 115.637 33.9321 116.355 33.48C117.074 33.0278 117.632 32.4028 118.031 31.6049L122.38 33.2805C121.954 34.3178 121.302 35.2088 120.425 35.9535C119.574 36.6982 118.55 37.2701 117.353 37.669C116.183 38.0414 114.919 38.2276 113.563 38.2276ZM129.605 9.14371V31.6847C129.605 32.6156 129.764 33.2672 130.084 33.6396C130.403 34.0119 130.935 34.1981 131.679 34.1981C132.132 34.1981 132.504 34.1715 132.796 34.1183C133.089 34.0385 133.461 33.9321 133.914 33.7992L133.435 37.3898C132.983 37.6557 132.411 37.8552 131.719 37.9882C131.054 38.1478 130.389 38.2276 129.724 38.2276C127.783 38.2276 126.36 37.7621 125.456 36.8312C124.578 35.8737 124.139 34.3577 124.139 32.2831V9.14371H129.605ZM145.332 25.1019C145.332 23.9583 145 23.0673 144.335 22.4289C143.697 21.7906 142.846 21.4714 141.782 21.4714C140.798 21.4714 139.933 21.7241 139.188 22.2295C138.444 22.7348 137.898 23.5726 137.553 24.7429L132.885 23.3066C133.337 21.5512 134.321 20.1416 135.837 19.0777C137.38 18.0138 139.441 17.4819 142.021 17.4819C143.776 17.4819 145.306 17.7612 146.609 18.3197C147.912 18.8516 148.923 19.6628 149.641 20.7533C150.386 21.8438 150.758 23.2135 150.758 24.8626V32.9614C150.758 33.972 151.237 34.4774 152.194 34.4774C152.647 34.4774 153.072 34.4109 153.471 34.2779L153.152 37.669C152.46 38.0148 151.596 38.1877 150.559 38.1877C149.628 38.1877 148.79 38.0281 148.045 37.7089C147.301 37.3898 146.715 36.911 146.29 36.2727C145.864 35.6078 145.652 34.7833 145.652 33.7992V33.6396L146.609 33.48C146.449 34.4907 146.011 35.3551 145.292 36.0732C144.574 36.7647 143.697 37.2967 142.659 37.669C141.649 38.0414 140.598 38.2276 139.508 38.2276C138.151 38.2276 136.981 38.0281 135.997 37.6291C135.013 37.2036 134.255 36.5919 133.723 35.7939C133.191 34.996 132.925 34.0119 132.925 32.8417C132.925 31.3522 133.404 30.1421 134.361 29.2112C135.319 28.2537 136.688 27.6021 138.47 27.2563L145.971 25.7403L145.931 29.1314L141.143 30.0889C140.239 30.2751 139.548 30.5277 139.069 30.8469C138.617 31.1395 138.391 31.6315 138.391 32.323C138.391 32.988 138.63 33.4933 139.109 33.8391C139.614 34.1848 140.212 34.3577 140.904 34.3577C141.462 34.3577 142.008 34.2912 142.54 34.1582C143.072 34.0252 143.55 33.8125 143.976 33.5199C144.401 33.2273 144.734 32.8284 144.973 32.323C145.213 31.8177 145.332 31.206 145.332 30.4878V25.1019Z" fill="white"/>
<path d="M173.577 11.4976L163.604 37.8286H159.973L149.959 11.4976H153.39L160.093 29.6899L161.768 34.9162L163.444 29.7298L170.146 11.4976H173.577ZM195.537 11.4976V14.4897H186.361V37.8286H183.17V14.4897H173.994V11.4976H195.537ZM196.914 37.8286V11.4976H215.386V14.4897H200.106V22.9875H211.995V25.9796H200.106V34.8364H215.985V37.8286H196.914ZM238.553 37.8286H234.883L227.742 26.977L220.56 37.8286H216.85L226.066 24.4237L217.648 11.4976H221.398L228.061 21.7507L234.803 11.4976H238.274L229.736 24.2641L238.553 37.8286Z" fill="white"/>
<path fill-rule="evenodd" clip-rule="evenodd" d="M3.07202 0C1.37539 0 0 1.37539 0 3.07202V18.5244C0 20.2211 1.37539 21.5965 3.07201 21.5965H34.8469C36.5435 21.5965 37.9189 20.2211 37.9189 18.5244V3.07202C37.9189 1.37539 36.5435 0 34.8469 0H3.07202ZM3.07396 1.79127H34.7199C35.3542 1.79127 35.8684 2.30546 35.8684 2.93975V18.6567C35.8684 19.2909 35.3542 19.8051 34.7199 19.8051H3.07396C2.43967 19.8051 1.92548 19.2909 1.92548 18.6567V2.93975C1.92548 2.30546 2.43967 1.79127 3.07396 1.79127ZM1.54265 2.93975C1.54265 2.09403 2.22825 1.40844 3.07396 1.40844H34.7199C35.5656 1.40844 36.2512 2.09403 36.2512 2.93975V18.6567C36.2512 19.5024 35.5656 20.188 34.7199 20.188H3.07396C2.22824 20.188 1.54265 19.5024 1.54265 18.6567V2.93975Z" fill="#6C00FF"/>
<rect y="12.855" width="17.2257" height="31.8805" rx="3.07202" fill="#FFB100"/>
<rect x="0.908872" y="13.764" width="15.408" height="30.0627" rx="2.3387" fill="#FFB100" stroke="white" stroke-width="0.275142"/>
<rect x="6.17041" y="14.9116" width="5.36588" height="1.4309" rx="0.715451" fill="white"/>
<path d="M21.1658 38.5075C20.1771 40.1929 17.7405 40.1928 16.7517 38.5075L7.52854 22.786C6.5278 21.0802 7.75789 18.9324 9.73559 18.9324L28.182 18.9324C30.1597 18.9324 31.3898 21.0802 30.389 22.786L21.1658 38.5075Z" fill="#EB455F" stroke="white" stroke-width="0.385198"/>
</svg>
