<svg width="33" height="34" viewBox="0 0 33 34" fill="none" xmlns="http://www.w3.org/2000/svg">
<path d="M25.4444 30.8518V3.14814C25.4436 2.31358 25.1116 1.51334 24.5214 0.923071C23.9311 0.332804 23.1308 0.000863491 22.2963 0H0.888906C0.541207 0 0.259277 0.28193 0.259277 0.629629V33.3703C0.259277 33.5373 0.325614 33.6975 0.443669 33.8156C0.561724 33.9336 0.721943 33.9999 0.888906 33.9999H22.2963C23.1308 33.9991 23.9311 33.6671 24.5214 33.0769C25.1116 32.4866 25.4436 31.6864 25.4444 30.8518ZM22.2963 32.7407H20.4074V26.4444H24.1852V30.8518C24.1846 31.3527 23.9853 31.8328 23.6314 32.187C23.2773 32.5409 22.7972 32.7401 22.2963 32.7407ZM16.6296 25.1851H1.51853V20.1481H16.6296V25.1851ZM17.8889 1.25926H19.1481V32.7407H17.8889V1.25926ZM20.4074 20.1481H24.1852V25.1851H20.4074V20.1481ZM24.1852 3.14814V18.8889H20.4074V1.25926H22.2963C22.7972 1.25982 23.2773 1.4591 23.6315 1.81299C23.9853 2.16716 24.1846 2.64725 24.1852 3.14814ZM16.6296 1.25926V18.8889H1.51853V1.25926H16.6296ZM1.51853 26.4444H16.6296V32.7407H1.51853V26.4444Z" fill="#141D28"/>
<path d="M29.8518 3.77783C29.6031 3.77783 29.3773 3.92428 29.2764 4.15167L26.7579 9.81833C26.7225 9.899 26.7045 9.98614 26.7048 10.0741H26.7037V32.1111C26.7042 32.612 26.9035 33.0921 27.2574 33.4463C27.6116 33.8002 28.0917 33.9995 28.5926 34H31.1111C31.612 33.9995 32.0921 33.8002 32.4463 33.4463C32.8002 33.0921 32.9994 32.612 33 32.1111V10.0741H32.9989C32.9992 9.98614 32.9812 9.899 32.9458 9.81833L30.4272 4.15167C30.3263 3.92427 30.1006 3.77783 29.8518 3.77783ZM29.8518 5.95793L30.5618 7.5556H29.1418L29.8518 5.95793ZM27.9629 28.9628H31.7407V30.222H27.9629V28.9628ZM30.4814 27.7035V11.7225L30.8294 11.8964C31.072 12.0179 31.3646 11.9701 31.5563 11.7784L31.7407 11.5943V27.7041L30.4814 27.7035ZM29.2222 27.7035H27.9629V11.5936L28.1473 11.778C28.339 11.9697 28.6316 12.0172 28.8742 11.8961L29.2222 11.7218L29.2222 27.7035ZM31.1111 32.7405H28.5926C28.2449 32.7403 27.9632 32.4586 27.9629 32.1109V31.4813H31.7407V32.1109C31.7404 32.4586 31.4588 32.7403 31.1111 32.7405ZM30.9868 10.5668L30.1335 10.1401V10.1404C29.9561 10.0516 29.7476 10.0516 29.5702 10.1404L28.7169 10.5671L28.0841 9.93465L28.5819 8.81456H31.1215L31.6193 9.93436L30.9868 10.5668Z" fill="#141D28"/>
</svg>
