<svg width="35" height="40" viewBox="0 0 35 40" fill="none" xmlns="http://www.w3.org/2000/svg">
<path d="M10.0425 32.4589L10.7686 34.6966H14.8773L15.6034 32.4589H15.604C16.5634 32.2072 17.4838 31.8255 18.3397 31.3242L20.4379 32.3931L23.3427 29.4883L22.2738 27.3911H22.2741C22.5069 26.9865 22.7135 26.5679 22.893 26.1375H34.3947C34.7208 26.1375 34.9848 25.8731 34.9848 25.5474V14.5184C34.9848 14.1924 34.7208 13.9283 34.3947 13.9283H29.941C29.6152 13.9283 29.3509 14.1924 29.3509 14.5184V24.9576H26.6052V10.1266C26.6052 9.80085 26.3408 9.53678 26.0151 9.53678H21.5616C21.2359 9.53678 20.9715 9.80085 20.9715 10.1266V24.9576H17.7467V6.54703C17.7467 6.221 17.4826 5.95693 17.1569 5.95693H12.7034C12.3774 5.95693 12.1133 6.221 12.1133 6.54703V9.04818H10.7695L10.0434 11.2861H10.0431C9.0837 11.5379 8.16306 11.9196 7.3074 12.4209L5.20864 11.3517L2.3038 14.2565L3.37274 16.3543C2.87136 17.21 2.48936 18.1303 2.23797 19.0898L0 19.8158V23.9243L2.23797 24.6503C2.48941 25.6101 2.87139 26.5304 3.37274 27.3864L2.3038 29.4872L5.20864 32.3921L7.30647 31.3237C8.16213 31.8251 9.08277 32.2071 10.0422 32.4585L10.0425 32.4589ZM30.5304 15.1094H33.8052V24.958H30.5304V15.1094ZM22.1509 10.7146H25.426L25.4263 24.9581H22.1509L22.1509 10.7146ZM12.7035 26.1369H17.9125C16.4956 27.8291 14.3306 28.7067 12.1354 28.4787C9.94005 28.2507 8.00159 26.9472 6.96245 25C5.92362 23.0529 5.91969 20.7168 6.95253 18.7663C7.98505 16.8159 9.91927 15.506 12.114 15.2709V25.5475C12.114 25.873 12.378 26.1367 12.7035 26.137L12.7035 26.1369ZM13.2936 7.1366H16.5687V24.9574H13.2927L13.2936 7.1366ZM3.74302 29.2599L4.72441 27.3356L4.54636 27.0535C3.96889 26.1338 3.54995 25.1235 3.30718 24.0648L3.23289 23.7391L1.17956 23.072L1.17926 20.6749L3.23259 20.0072L3.30688 19.6817H3.30718C3.5499 18.6233 3.96887 17.6134 4.54636 16.6936L4.72441 16.4103L3.74302 14.485L5.43694 12.7917L7.36184 13.7722L7.64516 13.5948L7.64486 13.5945C8.56458 13.0167 9.57485 12.5977 10.6335 12.3553L10.959 12.281L11.6267 10.2277H12.1142V14.0901C9.43198 14.334 7.06404 15.9416 5.84742 18.3444C4.63081 20.7473 4.73668 23.6073 6.12744 25.9135C7.51814 28.2201 9.99803 29.6482 12.6911 29.6936C15.3841 29.739 17.9105 28.3952 19.3783 26.1368H21.6058C21.4545 26.4511 21.2867 26.7572 21.1026 27.0535L20.9246 27.3371L21.9054 29.2614L20.2114 30.9553L18.2872 29.9739L18.0035 30.152V30.1523C17.0838 30.73 16.0735 31.149 15.0148 31.3917L14.6894 31.466L14.0223 33.5194H11.6267L10.959 31.466L10.6336 31.3917C9.5749 31.1493 8.56463 30.7304 7.64492 30.1526L7.36159 29.9751L5.43731 30.955L3.74302 29.2599ZM14.9306 4.92989C15.6091 4.92929 16.2437 4.59453 16.6278 4.03512L21.5519 6.24999H21.5516C21.5366 6.33901 21.5276 6.42864 21.5246 6.51888C21.5215 7.08311 21.7513 7.62392 22.1592 8.01368C22.5673 8.40347 23.1177 8.6083 23.6814 8.57972C24.245 8.55145 24.772 8.29219 25.1386 7.8633L30.1313 10.11V10.1097C30.1163 10.1985 30.1073 10.2881 30.104 10.378C30.0953 11.0373 30.3984 11.6617 30.9214 12.0629C31.4445 12.4639 32.1263 12.5944 32.7607 12.4148C33.395 12.2353 33.9069 11.7667 34.142 11.1507C34.3772 10.535 34.3078 9.84416 33.9547 9.28779C33.6016 8.73107 33.0064 8.37377 32.3491 8.3241C31.692 8.27448 31.0498 8.53794 30.617 9.03512L25.6243 6.78929C25.639 6.70027 25.6484 6.61004 25.6517 6.51981C25.6538 5.95527 25.4237 5.41507 25.0152 5.02531C24.6071 4.63582 24.0564 4.4313 23.4928 4.46018C22.9292 4.48875 22.4022 4.74801 22.0356 5.1772L16.9893 2.90789C16.9893 2.89526 16.9935 2.88293 16.9935 2.8697C16.9935 2.3226 16.7761 1.79806 16.3893 1.41101C16.0025 1.02422 15.4777 0.806763 14.9306 0.806763C14.3835 0.806763 13.859 1.02422 13.4719 1.41101C13.0851 1.79809 12.868 2.32264 12.868 2.8697C12.868 3.41679 13.0851 3.94164 13.4719 4.32839C13.859 4.71517 14.3835 4.93263 14.9306 4.93263L14.9306 4.92989ZM32.1685 9.49399C32.5261 9.49369 32.8485 9.70904 32.9856 10.0393C33.1225 10.3698 33.047 10.75 32.794 11.003C32.5414 11.2559 32.1609 11.3317 31.8303 11.1949C31.5001 11.058 31.2845 10.7356 31.2845 10.378C31.2851 9.89016 31.6803 9.49462 32.1684 9.49408L32.1685 9.49399ZM23.5872 5.6361H23.5869C23.9448 5.6361 24.2673 5.85145 24.4038 6.18199C24.5406 6.51223 24.4651 6.8927 24.2122 7.14567C23.959 7.39831 23.5788 7.4738 23.2482 7.33696C22.918 7.19981 22.7026 6.87739 22.7029 6.5198C22.7032 6.03135 23.0987 5.63558 23.5868 5.63527L23.5872 5.6361ZM14.9306 1.98333C15.2885 1.98302 15.6112 2.19808 15.748 2.52861C15.8852 2.85886 15.8097 3.23932 15.5567 3.4926C15.3041 3.74555 14.9236 3.82134 14.5931 3.68419C14.2625 3.54735 14.0472 3.22462 14.0475 2.86703C14.0478 2.37949 14.443 1.98394 14.9306 1.98333ZM28.2671 37.2121V38.7344C28.2671 39.0604 28.003 39.3245 27.677 39.3245H7.76575C7.44002 39.3245 7.17595 39.0604 7.17595 38.7344V33.3552C7.17595 33.0294 7.44002 32.7651 7.76575 32.7651C8.09179 32.7651 8.35586 33.0294 8.35586 33.3552V38.1449H27.0883V37.2122C27.0883 36.8865 27.3523 36.6221 27.6784 36.6221C28.0041 36.6221 28.2682 36.8865 28.2682 37.2122L28.2671 37.2121ZM34.4099 28.3283H26.1189C25.7929 28.3283 25.5288 28.5924 25.5288 28.9184V31.0719C25.5288 31.398 25.7929 31.662 26.1189 31.662H34.4099C34.7356 31.662 35 31.398 35 31.0719V28.9178C34.9997 28.5921 34.7356 28.3283 34.4099 28.3283ZM33.8198 30.4818H26.7085V29.5074H33.8204L33.8198 30.4818ZM31.9589 32.5342H26.1189C25.7929 32.5342 25.5288 32.7986 25.5288 33.1243V35.2779C25.5288 35.6039 25.7929 35.868 26.1189 35.868H31.9574C32.2834 35.868 32.5475 35.6039 32.5475 35.2779V33.1235C32.5469 32.7981 32.2831 32.5343 31.9574 32.5343L31.9589 32.5342ZM31.3688 34.6884H26.7085V33.713H31.3685L31.3688 34.6884Z" fill="#0F1823"/>
</svg>
