<svg width="137" height="114" viewBox="0 0 137 114" fill="none" xmlns="http://www.w3.org/2000/svg">
<path d="M134.52 0H2.28C1.02092 0 0 1.02092 0 2.28V93.48C0 94.0846 0.240215 94.6647 0.667714 95.0922C1.09521 95.5197 1.6754 95.76 2.28 95.76H54.079L50.2275 111.168C50.0575 111.849 50.2112 112.57 50.6428 113.124C51.0754 113.676 51.738 114 52.4393 114H84.3593C85.0606 114 85.7232 113.676 86.1558 113.124C86.5873 112.57 86.741 111.849 86.5711 111.168L82.7196 95.76H134.519C135.123 95.76 135.703 95.5197 136.131 95.0922C136.558 94.6647 136.799 94.0846 136.799 93.48V2.28C136.799 1.6754 136.558 1.09521 136.131 0.667714C135.703 0.240221 135.123 0 134.519 0H134.52ZM132.24 4.56V72.96H109.44V20.52C109.44 19.9154 109.2 19.3352 108.772 18.9077C108.345 18.4802 107.765 18.24 107.16 18.24H93.48C92.2209 18.24 91.2 19.2609 91.2 20.52V72.96H82.08V34.2C82.08 33.5954 81.8397 33.0152 81.4122 32.5877C80.9847 32.1602 80.4046 31.92 79.8 31.92H66.12C64.8609 31.92 63.84 32.9409 63.84 34.2V72.96H54.72V47.88C54.72 47.2754 54.4798 46.6952 54.0523 46.2677C53.6248 45.8402 53.0446 45.6 52.44 45.6H38.76C37.5009 45.6 36.48 46.6209 36.48 47.88V72.96H4.56V4.56H132.24ZM104.88 72.96H95.76V22.8H104.88V72.96ZM77.52 72.96H68.4V36.48H77.52V72.96ZM50.16 72.96H41.04V50.16H50.16V72.96ZM81.439 109.44H55.3584L58.7784 95.76H78.0169L81.439 109.44ZM132.24 91.2H4.56V77.52H132.24V91.2Z" fill="url(#paint0_linear_36_1561)"/>
<path d="M11.4 22.8C12.0046 22.8 12.5848 22.5598 13.0123 22.1323C13.4398 21.7048 13.68 21.1246 13.68 20.52V13.68H20.52C21.7791 13.68 22.8 12.6591 22.8 11.4C22.8 10.1409 21.7791 9.12 20.52 9.12H11.4C10.1409 9.12 9.12 10.1409 9.12 11.4V20.52C9.12 21.1246 9.36021 21.7048 9.78771 22.1323C10.2152 22.5598 10.7954 22.8 11.4 22.8Z" fill="url(#paint1_linear_36_1561)"/>
<path d="M11.4 36.48C12.0046 36.48 12.5848 36.2398 13.0123 35.8123C13.4398 35.3848 13.68 34.8046 13.68 34.2V29.64C13.68 28.3809 12.6591 27.36 11.4 27.36C10.1409 27.36 9.12 28.3809 9.12 29.64V34.2C9.12 34.8046 9.36021 35.3848 9.78771 35.8123C10.2152 36.2398 10.7954 36.48 11.4 36.48Z" fill="url(#paint2_linear_36_1561)"/>
<path d="M116.28 86.64H125.4C126.659 86.64 127.68 85.619 127.68 84.36C127.68 83.1009 126.659 82.08 125.4 82.08H116.28C115.021 82.08 114 83.1009 114 84.36C114 85.619 115.021 86.64 116.28 86.64Z" fill="url(#paint3_linear_36_1561)"/>
<path d="M25.08 43.32C25.5299 43.32 25.9686 43.1866 26.3431 42.9373L38.8222 34.6172L48.9844 40.7141H48.9834C49.93 41.281 51.1464 41.0886 51.8721 40.2581L66.2361 23.8533L69.073 26.6901V26.6891C69.9157 27.5319 71.2644 27.5838 72.1693 26.8082L88.1293 13.1282C88.852 12.5063 89.1115 11.4996 88.7787 10.6059C88.4469 9.71226 87.5939 9.11886 86.6402 9.11987H75.2402C73.9811 9.11987 72.9602 10.1408 72.9602 11.3999C72.9602 12.659 73.9811 13.6799 75.2402 13.6799H80.4842L70.8053 21.9744L67.7384 18.9075C67.3027 18.4464 66.6849 18.2031 66.0518 18.2418C65.4207 18.2631 64.8273 18.5451 64.412 19.0194L49.704 35.8252L39.9386 29.9655C39.1834 29.5115 38.2327 29.5339 37.4988 30.0225L23.8188 39.1425C22.9842 39.7003 22.6116 40.7375 22.9017 41.6983C23.1918 42.6602 24.0764 43.3179 25.08 43.32Z" fill="url(#paint4_linear_36_1561)"/>
<path d="M11.4 59.28H25.08C26.3391 59.28 27.36 58.2591 27.36 57C27.36 55.7409 26.3391 54.72 25.08 54.72H11.4C10.1409 54.72 9.12 55.7409 9.12 57C9.12 58.2591 10.1409 59.28 11.4 59.28Z" fill="url(#paint5_linear_36_1561)"/>
<path d="M11.4 68.4H25.08C26.3391 68.4 27.36 67.379 27.36 66.12C27.36 64.8609 26.3391 63.84 25.08 63.84H11.4C10.1409 63.84 9.12 64.8609 9.12 66.12C9.12 67.379 10.1409 68.4 11.4 68.4Z" fill="url(#paint6_linear_36_1561)"/>
<defs>
<linearGradient id="paint0_linear_36_1561" x1="136.799" y1="91.0609" x2="0.20881" y2="91.8787" gradientUnits="userSpaceOnUse">
<stop stop-color="#EB455F"/>
<stop offset="0.203937" stop-color="#FFB100"/>
</linearGradient>
<linearGradient id="paint1_linear_36_1561" x1="22.8" y1="20.0473" x2="9.14073" y2="20.1155" gradientUnits="userSpaceOnUse">
<stop stop-color="#EB455F"/>
<stop offset="0.203937" stop-color="#FFB100"/>
</linearGradient>
<linearGradient id="paint2_linear_36_1561" x1="13.68" y1="34.6449" x2="9.12682" y2="34.6562" gradientUnits="userSpaceOnUse">
<stop stop-color="#EB455F"/>
<stop offset="0.203937" stop-color="#FFB100"/>
</linearGradient>
<linearGradient id="paint3_linear_36_1561" x1="127.68" y1="85.7224" x2="114.023" y2="85.9268" gradientUnits="userSpaceOnUse">
<stop stop-color="#EB455F"/>
<stop offset="0.203937" stop-color="#FFB100"/>
</linearGradient>
<linearGradient id="paint4_linear_36_1561" x1="88.922" y1="36.4382" x2="22.909" y2="37.075" gradientUnits="userSpaceOnUse">
<stop stop-color="#EB455F"/>
<stop offset="0.203937" stop-color="#FFB100"/>
</linearGradient>
<linearGradient id="paint5_linear_36_1561" x1="27.36" y1="58.3624" x2="9.15443" y2="58.7257" gradientUnits="userSpaceOnUse">
<stop stop-color="#EB455F"/>
<stop offset="0.203937" stop-color="#FFB100"/>
</linearGradient>
<linearGradient id="paint6_linear_36_1561" x1="27.36" y1="67.4824" x2="9.15443" y2="67.8457" gradientUnits="userSpaceOnUse">
<stop stop-color="#EB455F"/>
<stop offset="0.203937" stop-color="#FFB100"/>
</linearGradient>
</defs>
</svg>
