<svg width="108" height="108" viewBox="0 0 108 108" fill="none" xmlns="http://www.w3.org/2000/svg">
<path d="M105.984 0H1.50484C0.67478 0 0 0.58889 0 1.31743V26.8519C0 27.5804 0.673706 28.1693 1.50484 28.1693H105.984C106.816 28.1693 107.488 27.5804 107.488 26.8519L107.487 1.31743C107.487 0.58889 106.815 0 105.982 0H105.984ZM104.48 25.5345H3.00987V2.63482H104.48V25.5345Z" fill="#0F1823"/>
<path d="M36.9498 32.6447H1.50753C0.67747 32.6447 0.00268555 33.2336 0.00268555 33.9621V106.683C0.00268555 107.411 0.676395 108 1.50753 108H36.9498C37.7799 108 38.4547 107.411 38.4547 106.683L38.4536 33.9621C38.4536 33.2336 37.7799 32.6447 36.9498 32.6447ZM35.445 105.365H3.01151V35.2788H35.445V105.365Z" fill="#0F1823"/>
<path d="M105.983 32.6447H45.0683C44.2382 32.6447 43.5634 33.2336 43.5634 33.9621V66.7663C43.5634 67.4948 44.2371 68.0837 45.0683 68.0837H105.983C106.816 68.0837 107.488 67.4948 107.488 66.7663V33.9621C107.488 33.2336 106.816 32.6447 105.983 32.6447ZM46.5727 36.3176L72.6543 50.3648L46.5727 64.4109V36.3176ZM50.385 35.2786H100.667L75.527 48.8175L50.385 35.2786ZM75.5264 51.9109L100.667 65.4498H50.3845L75.5264 51.9109ZM78.3966 50.3647L104.478 36.3185V64.4118L78.3966 50.3647Z" fill="#0F1823"/>
<path d="M105.983 72.5586H45.0683C44.2382 72.5586 43.5634 73.1475 43.5634 73.876L43.5645 106.68C43.5645 107.409 44.2382 107.998 45.0693 107.998H105.985C106.817 107.998 107.489 107.409 107.489 106.68L107.488 73.876C107.488 73.1475 106.816 72.5586 105.983 72.5586ZM46.5727 76.2325L72.6543 90.2787L46.5727 104.325V76.2325ZM50.385 75.1925H100.667L75.5269 88.7314L50.385 75.1925ZM75.5264 91.8248L100.667 105.364H50.3845L75.5264 91.8248ZM78.3966 90.2787L104.478 76.2325V104.326L78.3966 90.2787Z" fill="#0F1823"/>
<path d="M19.2273 23.2654C25.0104 23.2654 29.7149 19.1458 29.7149 14.0829C29.7149 9.01996 25.0104 4.90039 19.2273 4.90039C13.4442 4.90039 8.73969 9.01996 8.73969 14.0829C8.73969 19.1458 13.4463 23.2654 19.2273 23.2654ZM19.2273 7.53521C23.3505 7.53521 26.7053 10.4723 26.7053 14.0838C26.7053 17.6951 23.3505 20.6324 19.2273 20.6324C15.1042 20.6324 11.7493 17.6954 11.7493 14.0838C11.7493 10.4725 15.1042 7.53521 19.2273 7.53521Z" fill="#0F1823"/>
<path d="M36.9498 9.96168H53.7463C54.5763 9.96168 55.2511 9.37279 55.2511 8.64425C55.2511 7.9157 54.5774 7.32681 53.7463 7.32681L36.9498 7.32773C36.1197 7.32773 35.4449 7.91662 35.4449 8.64517C35.4449 9.37279 36.1176 9.96168 36.9498 9.96168Z" fill="#0F1823"/>
<path d="M36.9498 18.1476H77.1901C78.0223 18.1476 78.695 17.5588 78.695 16.8302C78.695 16.1017 78.0223 15.5128 77.1901 15.5128L36.9498 15.5137C36.1197 15.5137 35.4449 16.1026 35.4449 16.8311C35.4449 17.5588 36.1176 18.1476 36.9498 18.1476Z" fill="#0F1823"/>
<path d="M8.88991 49.1761H17.2587C18.0888 49.1761 18.7636 48.5872 18.7636 47.8587V45.5132H29.565C30.395 45.5132 31.0698 44.9243 31.0698 44.1958C31.0698 43.4672 30.3961 42.8784 29.565 42.8784H18.7636V40.5329C18.7636 39.8043 18.0899 39.2155 17.2587 39.2155H8.88991C8.05985 39.2155 7.38507 39.8043 7.38507 40.5329V47.8595C7.38507 48.5871 8.05878 49.1761 8.88991 49.1761ZM10.3937 41.8495H15.754V46.5422H10.3937V41.8495Z" fill="#0F1823"/>
<path d="M8.88991 62.5349H17.2587C18.0888 62.5349 18.7636 61.946 18.7636 61.2174V58.872H29.565C30.395 58.872 31.0698 58.2831 31.0698 57.5545C31.0698 56.826 30.3961 56.2371 29.565 56.2371H18.7636V53.8916C18.7636 53.1631 18.0899 52.5742 17.2587 52.5742H8.88991C8.05985 52.5742 7.38507 53.1631 7.38507 53.8916V61.2182C7.38507 61.9459 8.05878 62.5349 8.88991 62.5349ZM10.3937 55.2092H15.754V59.9019H10.3937V55.2092Z" fill="#0F1823"/>
<path d="M8.88991 75.4115H17.2587C18.0888 75.4115 18.7636 74.8226 18.7636 74.094V71.7486H29.565C30.395 71.7486 31.0698 71.1597 31.0698 70.4311C31.0698 69.7026 30.3961 69.1137 29.565 69.1137H18.7636V66.7682C18.7636 66.0397 18.0899 65.4508 17.2587 65.4508H8.88991C8.05985 65.4508 7.38507 66.0397 7.38507 66.7682V74.0948C7.38507 74.8225 8.05878 75.4115 8.88991 75.4115ZM10.3937 68.0839H15.754V72.7766H10.3937V68.0839Z" fill="#0F1823"/>
<path d="M8.88991 88.7678H17.2587C18.0888 88.7678 18.7636 88.1789 18.7636 87.4504V85.1059H29.565C30.395 85.1059 31.0698 84.517 31.0698 83.7884C31.0698 83.0599 30.3961 82.471 29.565 82.471H18.7636V80.1255C18.7636 79.397 18.0899 78.8081 17.2587 78.8081H8.88991C8.05985 78.8081 7.38507 79.397 7.38507 80.1255V87.4512C7.38507 88.1788 8.05878 88.7678 8.88991 88.7678ZM10.3937 81.4438H15.754V86.1347H10.3937V81.4438Z" fill="#0F1823"/>
<path d="M8.88991 95.5037H29.564C30.3941 95.5037 31.0689 94.9148 31.0689 94.1862C31.0689 93.4577 30.3951 92.8688 29.564 92.8688H8.88991C8.05985 92.8688 7.38507 93.4577 7.38507 94.1862C7.38507 94.9148 8.05878 95.5037 8.88991 95.5037Z" fill="#0F1823"/>
<path d="M88.3416 16.9482C89.6628 16.9482 90.8853 16.6018 91.9285 16.0276L98.5385 21.8145C98.8324 22.0717 99.2175 22.2003 99.6026 22.2003C99.9877 22.2003 100.373 22.0717 100.667 21.8145C101.255 21.2991 101.255 20.4667 100.667 19.9522L94.0567 14.1654C94.7136 13.2531 95.1082 12.1819 95.1082 11.0252C95.1082 7.76004 92.0722 5.10217 88.3426 5.10217C84.613 5.10217 81.5771 7.76004 81.5771 11.0252C81.576 14.2903 84.612 16.9482 88.3416 16.9482ZM88.3416 7.73631C90.4131 7.73631 92.0983 9.21175 92.0983 11.0252C92.0983 12.8387 90.413 14.3141 88.3416 14.3141C86.2701 14.3141 84.5849 12.8386 84.5849 11.0252C84.5849 9.21168 86.2702 7.73631 88.3416 7.73631Z" fill="#0F1823"/>
</svg>
