<svg width="125" height="109" viewBox="0 0 125 109" fill="none" xmlns="http://www.w3.org/2000/svg">
<path d="M117.078 108.187H7.57574C3.4 108.187 0.000762939 104.637 0.000762939 100.269L0.00171828 7.91786C0.00171828 3.55111 3.39998 0 7.57669 0H117.079C121.255 0 124.654 3.55013 124.654 7.91786V100.274C124.653 104.637 121.255 108.187 117.079 108.187H117.078ZM7.57574 4.27992C5.75772 4.27992 4.27971 5.91356 4.27971 7.91883V100.275C4.27971 102.28 5.75762 103.914 7.57574 103.914H117.078C118.896 103.914 120.374 102.28 120.374 100.275L120.375 7.91883C120.375 5.91358 118.897 4.27992 117.079 4.27992H7.57574Z" fill="url(#paint0_linear_36_1560)"/>
<path d="M122.512 32.3171H2.13901C0.958214 32.3171 0 31.3589 0 30.1781C0 28.9973 0.958214 28.0391 2.13901 28.0391H122.512C123.693 28.0391 124.651 28.9973 124.651 30.1781C124.651 31.3589 123.693 32.3171 122.512 32.3171Z" fill="url(#paint1_linear_36_1560)"/>
<path d="M16.4437 23.9798C12.1293 23.9798 8.6215 20.4717 8.6215 16.1576C8.6215 11.8432 12.1296 8.33533 16.4437 8.33533C20.7579 8.33533 24.266 11.8434 24.266 16.1576C24.266 20.472 20.7579 23.9798 16.4437 23.9798ZM16.4437 12.614C14.4881 12.614 12.9004 14.2056 12.9004 16.1573C12.9004 18.1091 14.492 19.7006 16.4437 19.7006C18.3954 19.7006 19.987 18.109 19.987 16.1573C19.987 14.2055 18.3954 12.614 16.4437 12.614Z" fill="url(#paint2_linear_36_1560)"/>
<path d="M36.0922 23.9798C31.7778 23.9798 28.27 20.4717 28.27 16.1576C28.27 11.8432 31.7781 8.33533 36.0922 8.33533C40.4066 8.33533 43.9145 11.8434 43.9145 16.1576C43.9145 20.472 40.4064 23.9798 36.0922 23.9798ZM36.0922 12.614C34.1367 12.614 32.549 14.2056 32.549 16.1573C32.549 18.1091 34.1405 19.7006 36.0922 19.7006C38.0478 19.7006 39.6355 18.109 39.6355 16.1573C39.6355 14.2055 38.0477 12.614 36.0922 12.614Z" fill="url(#paint3_linear_36_1560)"/>
<path d="M55.7383 23.9798C51.4239 23.9798 47.9161 20.4717 47.9161 16.1576C47.9161 11.8432 51.4241 8.33533 55.7383 8.33533C60.0525 8.33533 63.5605 11.8434 63.5605 16.1576C63.5605 20.472 60.0525 23.9798 55.7383 23.9798ZM55.7383 12.614C53.7827 12.614 52.195 14.2056 52.195 16.1573C52.195 18.1091 53.7866 19.7006 55.7383 19.7006C57.6939 19.7006 59.2816 18.109 59.2816 16.1573C59.2816 14.2055 57.6938 12.614 55.7383 12.614Z" fill="url(#paint4_linear_36_1560)"/>
<path d="M113.891 18.1151H71.4419C70.2612 18.1151 69.3029 17.1569 69.3029 15.9761C69.3029 14.7953 70.2612 13.8371 71.4419 13.8371H113.891C115.072 13.8371 116.03 14.7953 116.03 15.9761C116.03 17.1569 115.072 18.1151 113.891 18.1151Z" fill="url(#paint5_linear_36_1560)"/>
<path d="M45.7526 54.9004H18.9946C17.8138 54.9004 16.8556 53.9422 16.8556 52.7614V39.5328C16.8556 38.352 17.8138 37.3938 18.9946 37.3938H45.7575C46.9383 37.3938 47.8965 38.352 47.8965 39.5328V52.7614C47.8927 53.9422 46.9345 54.9004 45.7537 54.9004H45.7526ZM21.1345 50.6175H43.6146V41.6708L21.1345 41.6717V50.6175Z" fill="url(#paint6_linear_36_1560)"/>
<path d="M45.7526 76.8674H18.9946C17.8138 76.8674 16.8556 75.9092 16.8556 74.7284V61.4998C16.8556 60.319 17.8138 59.3608 18.9946 59.3608H45.7575C46.9383 59.3608 47.8965 60.319 47.8965 61.4998V74.7274C47.8927 75.9092 46.9345 76.8674 45.7537 76.8674L45.7526 76.8674ZM21.1345 72.5885H43.6146V63.6378H21.1345V72.5885Z" fill="url(#paint7_linear_36_1560)"/>
<path d="M105.659 76.8674H78.8963C77.7156 76.8674 76.7573 75.9092 76.7573 74.7284V61.4998C76.7573 60.319 77.7156 59.3608 78.8963 59.3608H105.659C106.84 59.3608 107.798 60.319 107.798 61.4998L107.799 74.7274C107.799 75.9092 106.841 76.8674 105.659 76.8674ZM81.0412 72.5885H103.521V63.6378H81.0412V72.5885Z" fill="url(#paint8_linear_36_1560)"/>
<path d="M45.7526 98.8344H18.9946C17.8138 98.8344 16.8556 97.8762 16.8556 96.6954V83.4668C16.8556 82.286 17.8138 81.3278 18.9946 81.3278H45.7575C46.9383 81.3278 47.8965 82.286 47.8965 83.4668V96.6954C47.8927 97.8762 46.9345 98.8344 45.7537 98.8344H45.7526ZM21.1345 94.5555H43.6146V85.6048H21.1345V94.5555Z" fill="url(#paint9_linear_36_1560)"/>
<path d="M78.9012 70.9H45.7526C44.5718 70.9 43.6136 69.9418 43.6136 68.761C43.6136 67.5802 44.5718 66.622 45.7526 66.622H78.9012C80.082 66.622 81.0402 67.5802 81.0402 68.761C81.0402 69.9418 80.082 70.9 78.9012 70.9Z" fill="url(#paint10_linear_36_1560)"/>
<path d="M57.4919 92.2213H45.7556C44.5748 92.2213 43.6166 91.2631 43.6166 90.0823C43.6166 88.9015 44.5748 87.9433 45.7556 87.9433H55.3529V48.2843H45.7556C44.5748 48.2843 43.6166 47.3261 43.6166 46.1453C43.6166 44.9645 44.5748 44.0063 45.7556 44.0063H57.4919C58.6727 44.0063 59.6309 44.9645 59.6309 46.1453V90.0793C59.6309 91.264 58.6727 92.2221 57.4919 92.2221V92.2213Z" fill="url(#paint11_linear_36_1560)"/>
<defs>
<linearGradient id="paint0_linear_36_1560" x1="124.654" y1="86.4174" x2="0.190687" y2="87.1328" gradientUnits="userSpaceOnUse">
<stop stop-color="#EB455F"/>
<stop offset="0.203937" stop-color="#FFB100"/>
</linearGradient>
<linearGradient id="paint1_linear_36_1560" x1="124.651" y1="31.4563" x2="2.7617" y2="49.1756" gradientUnits="userSpaceOnUse">
<stop stop-color="#EB455F"/>
<stop offset="0.203937" stop-color="#FFB100"/>
</linearGradient>
<linearGradient id="paint2_linear_36_1560" x1="24.266" y1="20.8318" x2="8.64521" y2="20.9097" gradientUnits="userSpaceOnUse">
<stop stop-color="#EB455F"/>
<stop offset="0.203937" stop-color="#FFB100"/>
</linearGradient>
<linearGradient id="paint3_linear_36_1560" x1="43.9145" y1="20.8318" x2="28.2937" y2="20.9097" gradientUnits="userSpaceOnUse">
<stop stop-color="#EB455F"/>
<stop offset="0.203937" stop-color="#FFB100"/>
</linearGradient>
<linearGradient id="paint4_linear_36_1560" x1="63.5605" y1="20.8318" x2="47.9398" y2="20.9097" gradientUnits="userSpaceOnUse">
<stop stop-color="#EB455F"/>
<stop offset="0.203937" stop-color="#FFB100"/>
</linearGradient>
<linearGradient id="paint5_linear_36_1560" x1="116.03" y1="17.2543" x2="69.5107" y2="19.7893" gradientUnits="userSpaceOnUse">
<stop stop-color="#EB455F"/>
<stop offset="0.203937" stop-color="#FFB100"/>
</linearGradient>
<linearGradient id="paint6_linear_36_1560" x1="47.8965" y1="51.3777" x2="16.9042" y2="51.6519" gradientUnits="userSpaceOnUse">
<stop stop-color="#EB455F"/>
<stop offset="0.203937" stop-color="#FFB100"/>
</linearGradient>
<linearGradient id="paint7_linear_36_1560" x1="47.8965" y1="73.3447" x2="16.9042" y2="73.6189" gradientUnits="userSpaceOnUse">
<stop stop-color="#EB455F"/>
<stop offset="0.203937" stop-color="#FFB100"/>
</linearGradient>
<linearGradient id="paint8_linear_36_1560" x1="107.799" y1="73.3447" x2="76.806" y2="73.6189" gradientUnits="userSpaceOnUse">
<stop stop-color="#EB455F"/>
<stop offset="0.203937" stop-color="#FFB100"/>
</linearGradient>
<linearGradient id="paint9_linear_36_1560" x1="47.8965" y1="95.3117" x2="16.9042" y2="95.5859" gradientUnits="userSpaceOnUse">
<stop stop-color="#EB455F"/>
<stop offset="0.203937" stop-color="#FFB100"/>
</linearGradient>
<linearGradient id="paint10_linear_36_1560" x1="81.0402" y1="70.0391" x2="43.7405" y2="71.6672" gradientUnits="userSpaceOnUse">
<stop stop-color="#EB455F"/>
<stop offset="0.203937" stop-color="#FFB100"/>
</linearGradient>
<linearGradient id="paint11_linear_36_1560" x1="59.6309" y1="82.5202" x2="43.6405" y2="82.5467" gradientUnits="userSpaceOnUse">
<stop stop-color="#EB455F"/>
<stop offset="0.203937" stop-color="#FFB100"/>
</linearGradient>
</defs>
</svg>
