<svg width="118" height="118" viewBox="0 0 118 118" fill="none" xmlns="http://www.w3.org/2000/svg">
<path d="M107.143 62.4136L113.149 60.7006L113.152 60.6647C113.029 60.6662 112.878 60.664 112.7 60.6579C112.523 60.6519 112.329 60.6429 112.118 60.6311C111.911 60.6195 111.699 60.6045 111.483 60.5861L107.328 60.2327L107.389 59.5223L113.963 60.0814L113.867 61.2146L108.222 62.8315L108.219 62.8629L113.507 65.4414L113.411 66.5656L106.837 66.0064L106.902 65.251L111.11 65.609C111.305 65.6256 111.5 65.6451 111.694 65.6677C111.892 65.6905 112.077 65.7138 112.25 65.7376C112.426 65.7616 112.578 65.7836 112.706 65.8036L112.709 65.7676L107.09 63.0386L107.143 62.4136Z" fill="black"/>
<path d="M105.46 72.2642L107.687 71.9686L108.31 69.3986L106.466 68.1198L106.649 67.3655L112.478 71.4362L112.315 72.1072L105.273 73.0361L105.46 72.2642ZM108.403 71.9056L110.607 71.6462C110.664 71.6415 110.757 71.6332 110.887 71.6213C111.016 71.6124 111.15 71.6031 111.288 71.5933C111.427 71.5836 111.539 71.5752 111.624 71.568C111.511 71.5097 111.399 71.4485 111.288 71.3843C111.179 71.3238 111.077 71.265 110.982 71.208C110.891 71.1517 110.813 71.1034 110.748 71.0629L108.912 69.8093L108.403 71.9056Z" fill="black"/>
<path d="M104.856 74.1456L111.084 76.3236L110.831 77.0478L104.603 74.8698L104.856 74.1456Z" fill="black"/>
<path d="M103.767 81.4528C103.41 81.2911 103.147 81.064 102.976 80.7715C102.806 80.483 102.728 80.15 102.74 79.7725C102.753 79.395 102.857 78.9912 103.052 78.5612C103.156 78.3338 103.264 78.1237 103.378 77.931C103.492 77.7382 103.608 77.5662 103.727 77.415C103.845 77.2638 103.963 77.1376 104.082 77.0362L104.752 77.3403C104.574 77.5072 104.38 77.7218 104.172 77.9841C103.966 78.2476 103.79 78.541 103.643 78.8642C103.507 79.1655 103.431 79.4383 103.416 79.6826C103.403 79.9281 103.448 80.1385 103.55 80.3138C103.654 80.493 103.813 80.6311 104.026 80.7281C104.232 80.8214 104.423 80.854 104.601 80.8258C104.782 80.7988 104.977 80.7054 105.185 80.5454C105.394 80.3895 105.646 80.16 105.939 79.8568C106.145 79.6431 106.345 79.4632 106.54 79.3173C106.738 79.1725 106.936 79.0655 107.132 78.9962C107.329 78.9269 107.533 78.8991 107.745 78.9127C107.956 78.929 108.178 78.9901 108.41 79.0958C108.731 79.2414 108.968 79.4466 109.122 79.7114C109.278 79.9803 109.35 80.2859 109.34 80.6283C109.332 80.9746 109.242 81.3355 109.072 81.7107C108.926 82.0313 108.762 82.3134 108.578 82.5573C108.394 82.8038 108.199 83.0178 107.994 83.1991L107.493 82.7089C107.682 82.5336 107.862 82.3377 108.033 82.1212C108.203 81.9075 108.346 81.6719 108.463 81.4144C108.58 81.1569 108.64 80.9217 108.644 80.7088C108.65 80.4999 108.606 80.3178 108.511 80.1625C108.416 80.0071 108.274 79.8866 108.085 79.8007C107.874 79.7049 107.679 79.6692 107.5 79.6934C107.319 79.7203 107.13 79.8062 106.932 79.9509C106.735 80.0997 106.505 80.3089 106.24 80.5787C105.951 80.8736 105.678 81.1113 105.421 81.292C105.166 81.4738 104.906 81.5819 104.639 81.6161C104.375 81.6515 104.084 81.5971 103.767 81.4528Z" fill="black"/>
<path d="M100.13 84.3175L105.684 87.8798L105.27 88.5255L99.7159 84.9633L100.13 84.3175Z" fill="black"/>
<path d="M95.1208 91.1433L95.6744 90.4534L102.248 91.1171L102.27 91.0889C102.15 91.0037 102.012 90.9064 101.856 90.7972C101.703 90.6898 101.542 90.5716 101.371 90.4426C101.201 90.3178 101.031 90.1867 100.86 90.0492L97.9031 87.6765L98.3494 87.1204L103.495 91.2501L102.944 91.9364L96.3935 91.2735L96.3737 91.2982C96.4596 91.3594 96.5804 91.4467 96.7362 91.5602C96.8944 91.6756 97.0631 91.7994 97.2424 91.9317C97.4222 92.0683 97.5871 92.1968 97.7373 92.3173L100.718 94.7099L100.266 95.273L95.1208 91.1433Z" fill="black"/>
<path d="M92.4147 98.4764C91.9067 97.934 91.5808 97.388 91.437 96.8384C91.2953 96.291 91.3258 95.7492 91.5285 95.2131C91.7311 94.6812 92.0992 94.1653 92.6327 93.6656L93.9404 92.4408L98.4507 97.2562L96.9982 98.6167C96.5085 99.0754 96.0026 99.3802 95.4804 99.5313C94.9603 99.6846 94.4402 99.675 93.9201 99.5026C93.3998 99.3345 92.898 98.9924 92.4147 98.4764ZM92.9858 97.9044C93.3909 98.337 93.7976 98.6259 94.2058 98.7712C94.6118 98.9186 95.018 98.9298 95.4244 98.8047C95.8306 98.6839 96.2346 98.4353 96.6365 98.0589L97.4434 97.3031L93.8308 93.4461L93.149 94.0847C92.4859 94.7059 92.1418 95.3353 92.1167 95.973C92.0893 96.6128 92.379 97.2566 92.9858 97.9044Z" fill="black"/>
<path d="M88.6731 97.1178L92.6318 102.396L92.0181 102.856L88.0594 97.5781L88.6731 97.1178Z" fill="black"/>
<path d="M86.7203 105.719C87.031 105.53 87.2779 105.305 87.4611 105.045C87.6433 104.789 87.7598 104.506 87.8105 104.197C87.8602 103.892 87.8442 103.568 87.7626 103.227C87.6809 102.885 87.5311 102.536 87.3132 102.179C87.0246 101.707 86.7005 101.341 86.3409 101.081C85.9803 100.825 85.5956 100.692 85.1868 100.68C84.7755 100.671 84.3491 100.801 83.9074 101.071C83.6558 101.224 83.4321 101.389 83.2364 101.565C83.0397 101.745 82.8557 101.932 82.6843 102.124L82.3362 101.554C82.4945 101.352 82.6757 101.164 82.8797 100.99C83.0821 100.813 83.3387 100.63 83.6494 100.44C84.2219 100.091 84.7729 99.9162 85.3023 99.9172C85.8308 99.9223 86.3238 100.083 86.7813 100.399C87.2364 100.717 87.6442 101.171 88.0049 101.762C88.2652 102.188 88.4438 102.613 88.5405 103.037C88.6362 103.465 88.6482 103.877 88.5765 104.274C88.5023 104.672 88.3406 105.042 88.0915 105.384C87.8414 105.731 87.4994 106.037 87.0655 106.302C86.7805 106.476 86.4885 106.615 86.1895 106.72C85.8906 106.825 85.6024 106.89 85.325 106.915L85.2481 106.201C85.478 106.173 85.7189 106.123 85.9706 106.05C86.2214 105.982 86.4713 105.872 86.7203 105.719Z" fill="black"/>
<path d="M77.01 103.872L78.6095 105.448L81.0215 104.364L80.8996 102.123L81.6076 101.805L81.9698 108.905L81.3401 109.189L76.2855 104.197L77.01 103.872ZM79.0989 105.976L80.6558 107.557C80.6945 107.599 80.7583 107.667 80.8473 107.762C80.9336 107.859 81.0231 107.959 81.1158 108.062C81.2085 108.166 81.2838 108.249 81.3418 108.312C81.3187 108.187 81.2983 108.061 81.2806 107.934C81.2615 107.81 81.2454 107.694 81.2324 107.584C81.2206 107.477 81.2109 107.386 81.2033 107.31L81.0663 105.091L79.0989 105.976Z" fill="black"/>
<path d="M71.2048 109.276C70.9942 108.564 70.948 107.93 71.0661 107.374C71.185 106.821 71.4554 106.351 71.8772 105.962C72.2969 105.578 72.8573 105.282 73.5584 105.075L75.2765 104.567L77.1466 110.894L75.238 111.459C74.5946 111.649 74.0057 111.694 73.4712 111.595C72.9376 111.498 72.4771 111.256 72.0897 110.869C71.7002 110.485 71.4052 109.954 71.2048 109.276ZM71.9718 109.021C72.1398 109.59 72.3736 110.031 72.6732 110.344C72.9699 110.657 73.3279 110.85 73.7472 110.92C74.1644 110.995 74.6371 110.954 75.1651 110.798L76.2254 110.484L74.7276 105.416L73.8317 105.681C72.9604 105.939 72.3704 106.347 72.0618 106.905C71.7503 107.465 71.7203 108.17 71.9718 109.021Z" fill="black"/>
<path d="M63.4414 110.481C63.3731 109.977 63.3749 109.51 63.4469 109.078C63.5193 108.649 63.6619 108.268 63.8749 107.936C64.0853 107.607 64.3659 107.336 64.7167 107.125C65.0675 106.913 65.4889 106.774 65.9808 106.707C66.4876 106.639 66.9413 106.659 67.3418 106.769C67.7392 106.879 68.0834 107.066 68.3743 107.33C68.6622 107.595 68.8968 107.926 69.0783 108.323C69.2567 108.721 69.3801 109.172 69.4485 109.675C69.5391 110.343 69.5082 110.944 69.356 111.478C69.2037 112.012 68.923 112.449 68.5138 112.79C68.1017 113.131 67.5572 113.348 66.8804 113.44C66.2335 113.527 65.6706 113.462 65.1918 113.245C64.7099 113.028 64.3216 112.683 64.0266 112.21C63.7291 111.74 63.5341 111.164 63.4414 110.481ZM68.6468 109.775C68.5716 109.221 68.4274 108.751 68.2144 108.367C68.0014 107.983 67.7175 107.703 67.3626 107.526C67.0047 107.35 66.5738 107.296 66.07 107.365C65.5632 107.434 65.1638 107.6 64.8717 107.864C64.5767 108.129 64.3791 108.475 64.2791 108.901C64.1791 109.328 64.1667 109.818 64.2419 110.373C64.3564 111.216 64.6232 111.851 65.0422 112.277C65.4587 112.706 66.0411 112.87 66.7894 112.769C67.2963 112.7 67.6989 112.535 67.9973 112.272C68.2957 112.01 68.4981 111.667 68.6045 111.243C68.7083 110.822 68.7224 110.333 68.6468 109.775Z" fill="black"/>
<path d="M58.0326 110.681C58.0205 110.942 57.9688 111.149 57.8774 111.301C57.7858 111.457 57.6663 111.567 57.5187 111.633C57.3681 111.698 57.2011 111.726 57.0178 111.718C56.8344 111.709 56.6723 111.666 56.5314 111.587C56.3875 111.508 56.2771 111.387 56.2004 111.224C56.1236 111.061 56.0912 110.85 56.1032 110.591C56.1149 110.339 56.1666 110.133 56.2582 109.975C56.3498 109.82 56.4709 109.708 56.6216 109.639C56.7694 109.571 56.9349 109.541 57.1182 109.549C57.3016 109.558 57.4651 109.603 57.6089 109.685C57.7497 109.767 57.8585 109.89 57.9352 110.053C58.012 110.216 58.0445 110.425 58.0326 110.681Z" fill="#EB455F"/>
<path d="M48.5107 106.152L49.3105 112.347L49.3457 112.355C49.3626 112.232 49.3873 112.084 49.4197 111.909C49.4521 111.734 49.4898 111.544 49.5329 111.337C49.5752 111.134 49.6215 110.927 49.6718 110.716L50.6396 106.66L51.3332 106.826L49.8018 113.243L48.6956 112.979L47.9369 107.157L47.9062 107.149L44.5693 111.995L43.4719 111.733L45.0033 105.315L45.7408 105.491L44.7603 109.6C44.715 109.79 44.6666 109.98 44.6154 110.169C44.5635 110.36 44.5128 110.54 44.4636 110.708C44.4136 110.878 44.3692 111.025 44.3304 111.149L44.3655 111.157L47.9005 106.007L48.5107 106.152Z" fill="black"/>
<path d="M39.4861 103.215L42.9007 104.57L40.4674 110.703L37.0529 109.348L37.3025 108.719L40.004 109.79L40.7912 107.806L38.245 106.796L38.4913 106.175L41.0375 107.186L41.9379 104.916L39.2365 103.844L39.4861 103.215Z" fill="black"/>
<path d="M38.1344 102.586L35.0548 108.421L34.3763 108.063L37.1357 102.835L34.5455 101.468L34.8656 100.861L38.1344 102.586Z" fill="black"/>
<path d="M29.5409 97.3042L30.1694 97.7441L28.3866 100.292L31.2262 102.279L33.009 99.7314L33.6376 100.171L29.8545 105.577L29.226 105.137L30.8381 102.833L27.9985 100.846L26.3864 103.15L25.7578 102.71L29.5409 97.3042Z" fill="black"/>
<path d="M21.6477 94.643C21.998 94.2745 22.3641 93.9832 22.746 93.7692C23.1257 93.5574 23.512 93.4305 23.9046 93.3886C24.293 93.3468 24.6794 93.3965 25.0639 93.5379C25.4485 93.6792 25.8206 93.9208 26.1805 94.2628C26.5512 94.6151 26.8191 94.9818 26.9842 95.3628C27.147 95.7417 27.2164 96.1272 27.1923 96.5194C27.1661 96.9095 27.0547 97.2997 26.8582 97.6899C26.6595 98.078 26.3851 98.4563 26.0348 98.8249C25.5705 99.3134 25.0826 99.6652 24.5709 99.8804C24.0593 100.096 23.5425 100.15 23.0205 100.044C22.4964 99.9364 21.9868 99.6471 21.4917 99.1767C21.0185 98.7269 20.7169 98.2472 20.5869 97.7377C20.4547 97.226 20.4809 96.7072 20.6654 96.1811C20.8457 95.6551 21.1731 95.1425 21.6477 94.643ZM25.4554 98.2618C25.841 97.8562 26.1169 97.4502 26.2831 97.0437C26.4494 96.6373 26.4904 96.2404 26.4061 95.8531C26.3196 95.4638 26.092 95.0939 25.7235 94.7437C25.3527 94.3913 24.9729 94.1839 24.584 94.1215C24.1929 94.0569 23.7997 94.1191 23.4045 94.3079C23.0092 94.4967 22.6188 94.7939 22.2333 95.1995C21.6467 95.8167 21.3185 96.422 21.2484 97.0154C21.1741 97.6089 21.4107 98.1657 21.9581 98.686C22.3288 99.0383 22.7098 99.2489 23.101 99.3177C23.4922 99.3865 23.8865 99.3296 24.2841 99.1471C24.6774 98.9647 25.0679 98.6696 25.4554 98.2618Z" fill="black"/>
<path d="M16.2633 93.3859C15.9274 92.9611 15.7034 92.5686 15.5913 92.2085C15.475 91.848 15.4701 91.5143 15.5766 91.2076C15.6831 90.9009 15.9028 90.6161 16.2356 90.3529C16.5093 90.1365 16.7774 90.0051 17.0399 89.9586C17.3 89.9141 17.5501 89.9272 17.7903 89.9982C18.0304 90.0691 18.2531 90.1711 18.4581 90.3043L19.6615 87.0459L20.2157 87.7468L19.0583 90.7215L19.9092 91.7977L22.0686 90.0903L22.5445 90.6921L17.3689 94.7842L16.2633 93.3859ZM16.8117 93.0098L17.4135 93.771L19.3994 92.2007L18.7501 91.3794C18.4161 90.957 18.0845 90.7148 17.7555 90.6527C17.4246 90.5883 17.0916 90.6886 16.7565 90.9536C16.4049 91.2316 16.2398 91.5347 16.2615 91.8628C16.2812 92.1885 16.4646 92.5709 16.8117 93.0098Z" fill="black"/>
<path d="M10.8619 85.2907C10.4617 84.5392 10.3171 83.9123 10.428 83.4101C10.5349 82.9067 10.8619 82.5093 11.4089 82.218C11.6559 82.0865 11.9128 82.0025 12.1797 81.9661C12.4425 81.9283 12.707 81.9545 12.9731 82.0446C13.2366 82.1361 13.4959 82.3031 13.7512 82.5455C14.0023 82.7867 14.241 83.1198 14.4673 83.5446L14.8448 84.2537L17.1352 83.034L17.4958 83.7112L11.6722 86.8123L10.8619 85.2907ZM11.4735 85.0468L11.8892 85.8276L14.2633 84.5634L13.926 83.93C13.728 83.5582 13.5234 83.2701 13.3123 83.0655C13.0997 82.8583 12.8712 82.7397 12.6268 82.7096C12.3798 82.681 12.1075 82.7459 11.8101 82.9042C11.4224 83.1107 11.2 83.3876 11.143 83.735C11.0833 84.0838 11.1935 84.521 11.4735 85.0468Z" fill="black"/>
<path d="M13.4281 74.9367L14.77 78.3563L8.62817 80.7666L7.28621 77.347L7.91636 77.0997L8.97806 79.8051L10.9651 79.0253L9.96443 76.4753L10.5862 76.2313L11.5869 78.7813L13.8596 77.8894L12.7979 75.184L13.4281 74.9367Z" fill="black"/>
<path d="M6.12369 73.528C5.98601 73.0042 5.9379 72.5549 5.97935 72.1801C6.01713 71.8031 6.14623 71.4954 6.36665 71.257C6.58708 71.0186 6.90243 70.8455 7.3127 70.7377C7.65023 70.649 7.94854 70.6359 8.20763 70.6984C8.4638 70.7617 8.68773 70.874 8.87941 71.0351C9.07109 71.1963 9.2342 71.3789 9.36875 71.5831L11.7762 69.0791L12.0034 69.9433L9.75172 72.2057L10.1005 73.5325L12.7629 72.8327L12.958 73.5747L6.57687 75.252L6.12369 73.528ZM6.77676 73.403L7.02343 74.3414L9.47199 73.6978L9.20582 72.6852C9.06891 72.1643 8.86212 71.8096 8.58546 71.621C8.30803 71.4295 7.96273 71.3881 7.54954 71.4967C7.11599 71.6107 6.84343 71.8223 6.73186 72.1316C6.61953 72.438 6.6345 72.8618 6.77676 73.403Z" fill="black"/>
<path d="M11.4123 66.8785L11.5183 67.6384L4.98381 68.5504L4.47601 64.9122L5.14644 64.8186L5.54819 67.697L7.94389 67.3626L7.56647 64.6585L8.23243 64.5656L8.60985 67.2697L11.4123 66.8785Z" fill="black"/>
<path d="M7.4705 57.0065C7.97894 57.0025 8.44275 57.0636 8.86193 57.1898C9.2781 57.3159 9.6376 57.5057 9.94043 57.7591C10.2402 58.0095 10.4728 58.3221 10.6382 58.697C10.8035 59.0718 10.8881 59.5074 10.892 60.0038C10.8959 60.5152 10.8181 60.9626 10.6586 61.3459C10.4991 61.7263 10.2699 62.044 9.97097 62.299C9.67204 62.551 9.31398 62.7418 8.89677 62.8714C8.47954 62.998 8.0167 63.0632 7.50827 63.0672C6.83436 63.0724 6.24233 62.9656 5.73217 62.7469C5.22201 62.5282 4.82379 62.1943 4.53751 61.7452C4.2512 61.2931 4.10541 60.7256 4.10014 60.0427C4.0951 59.3898 4.23075 58.8397 4.50711 58.3923C4.78344 57.9418 5.17494 57.6003 5.68161 57.3678C6.18526 57.1322 6.78155 57.0118 7.4705 57.0065ZM7.51105 62.2593C8.07064 62.255 8.55439 62.1715 8.96232 62.0089C9.37025 61.8463 9.68426 61.6002 9.90436 61.2705C10.1244 60.9379 10.2325 60.5173 10.2286 60.0089C10.2246 59.4974 10.1101 59.0801 9.88495 58.7569C9.65979 58.4307 9.34203 58.191 8.93166 58.0377C8.52129 57.8844 8.03632 57.8099 7.47674 57.8142C6.62533 57.8208 5.96183 58.005 5.48624 58.3667C5.00762 58.7254 4.77122 59.2823 4.77705 60.0374C4.781 60.5489 4.89406 60.9692 5.11624 61.2985C5.33842 61.6277 5.65321 61.872 6.06061 62.0313C6.46498 62.1877 6.94846 62.2637 7.51105 62.2593Z" fill="black"/>
<path d="M4.64832 51.987C4.72318 51.4506 4.85198 51.0175 5.03473 50.6876C5.21491 50.3543 5.45264 50.1201 5.74791 49.9852C6.04319 49.8502 6.4009 49.812 6.82104 49.8706C7.16669 49.9189 7.44698 50.0218 7.66193 50.1794C7.87391 50.3366 8.03726 50.5264 8.15201 50.749C8.26676 50.9716 8.34685 51.203 8.3923 51.4433L11.579 50.0608L11.4555 50.9458L8.50568 52.1654L8.31603 53.5241L11.0425 53.9047L10.9364 54.6645L4.4019 53.7525L4.64832 51.987ZM5.29911 52.1234L5.16498 53.0843L7.67242 53.4343L7.81714 52.3974C7.89159 51.864 7.83752 51.457 7.65493 51.1763C7.47276 50.8927 7.17012 50.7213 6.747 50.6623C6.30302 50.6003 5.96995 50.6905 5.74777 50.9329C5.52602 51.1723 5.37646 51.5691 5.29911 52.1234Z" fill="black"/>
<path d="M12.5717 46.0231L6.34172 46.4694L6.33135 46.504C6.45297 46.5278 6.60009 46.5609 6.77272 46.6032C6.94535 46.6455 7.13339 46.694 7.33686 46.7487C7.53744 46.8026 7.74149 46.8606 7.94899 46.9228L11.9434 48.1198L11.7387 48.8028L5.41855 46.9088L5.74501 45.8194L11.6015 45.3932L11.6106 45.3629L6.96273 41.7558L7.2866 40.6751L13.6068 42.5691L13.3891 43.2953L9.34284 42.0828C9.15552 42.0266 8.96905 41.9676 8.78345 41.9057C8.59497 41.8429 8.41844 41.7822 8.25388 41.7235C8.08643 41.6639 7.94204 41.6112 7.82071 41.5654L7.81034 41.6L12.7518 45.4222L12.5717 46.0231Z" fill="black"/>
<path d="M16.2212 36.7513L13.9814 36.5834L12.8434 38.9706L14.386 40.6009L14.052 41.3016L9.18263 36.1206L9.47976 35.4973L16.563 36.0343L16.2212 36.7513ZM13.2673 36.498L11.0572 36.2993C11.0006 36.2923 10.9075 36.2813 10.778 36.2662C10.6499 36.2484 10.517 36.2301 10.3793 36.2111C10.2417 36.1922 10.1304 36.1775 10.0454 36.167C10.1438 36.2472 10.2409 36.3301 10.3368 36.4158C10.4312 36.4975 10.5188 36.5759 10.5996 36.6511C10.6777 36.725 10.7441 36.7883 10.7989 36.8411L12.339 38.4452L13.2673 36.498Z" fill="black"/>
<path d="M19.8294 30.8672L19.3464 31.6082L12.7397 31.5952L12.72 31.6254C12.8484 31.6984 12.9953 31.7816 13.1607 31.875C13.3235 31.9668 13.4961 32.0684 13.6783 32.1801C13.8596 32.2875 14.0423 32.4012 14.2263 32.5211L17.402 34.5912L17.0127 35.1885L11.4854 31.5856L11.9659 30.8484L18.5501 30.8629L18.5674 30.8365C18.4759 30.784 18.347 30.709 18.1808 30.6114C18.012 30.5122 17.8319 30.4056 17.6405 30.2916C17.4482 30.1734 17.2714 30.0617 17.1101 29.9566L13.9079 27.8693L14.3021 27.2644L19.8294 30.8672Z" fill="black"/>
<path d="M18.2494 23.2893C18.0114 23.5648 17.8447 23.8542 17.7495 24.1576C17.654 24.4568 17.6292 24.7615 17.6753 25.0717C17.721 25.3777 17.8348 25.6808 18.0167 25.9811C18.1985 26.2814 18.4477 26.5683 18.7641 26.8418C19.1829 27.2037 19.6032 27.4536 20.0249 27.5914C20.4463 27.725 20.8533 27.7348 21.2461 27.6209C21.6407 27.5047 22.0073 27.2508 22.3456 26.8593C22.5384 26.6362 22.7012 26.4111 22.834 26.1838C22.9664 25.9523 23.0849 25.7187 23.1893 25.4828L23.6946 25.9196C23.6055 26.1607 23.4903 26.3952 23.3491 26.6231C23.2101 26.8529 23.0216 27.1055 22.7836 27.3809C22.3449 27.8885 21.8733 28.2226 21.3687 28.383C20.8639 28.5392 20.3454 28.5365 19.8132 28.3747C19.2829 28.2107 18.756 27.9025 18.2324 27.45C17.8546 27.1234 17.555 26.773 17.3336 26.3988C17.1119 26.0203 16.9748 25.6314 16.9223 25.2321C16.8717 24.8305 16.9128 24.4286 17.0457 24.0265C17.1782 23.6201 17.4107 23.2246 17.7431 22.8399C17.9615 22.5872 18.197 22.3653 18.4498 22.1741C18.7025 21.9829 18.9571 21.8332 19.2137 21.7249L19.5048 22.382C19.2942 22.4784 19.0801 22.5996 18.8625 22.7456C18.6446 22.8873 18.4402 23.0685 18.2494 23.2893Z" fill="black"/>
<path d="M27.7586 22.3029L25.0503 24.7848L20.5927 19.9204L23.301 17.4386L23.7584 17.9376L21.6157 19.9012L23.0579 21.4749L25.0774 19.6242L25.5287 20.1166L23.5091 21.9674L25.1586 23.7674L27.3013 21.8038L27.7586 22.3029Z" fill="black"/>
<path d="M28.8869 17.1415C28.7408 16.9244 28.659 16.7274 28.6416 16.5505C28.6224 16.3712 28.6526 16.2113 28.7321 16.0708C28.8141 15.9285 28.9312 15.8062 29.0835 15.7038C29.2357 15.6013 29.3919 15.5397 29.5521 15.519C29.7147 15.4966 29.8755 15.528 30.0344 15.6133C30.1933 15.6985 30.345 15.8485 30.4894 16.0632C30.6305 16.2728 30.7115 16.4686 30.7323 16.6504C30.7514 16.8297 30.7208 16.9917 30.6405 17.1364C30.5627 17.2795 30.4476 17.4022 30.2954 17.5047C30.1431 17.6071 29.9848 17.6683 29.8205 17.6882C29.6587 17.7064 29.4984 17.6729 29.3395 17.5877C29.1805 17.5024 29.0297 17.3537 28.8869 17.1415Z" fill="#EB455F"/>
<path d="M40.5406 14.4728L38.9294 12.908L36.5255 14.0104L36.6641 16.2505L35.9586 16.574L35.5434 9.47608L36.171 9.18826L41.2626 14.1417L40.5406 14.4728ZM38.4361 12.3845L36.8674 10.8151C36.8285 10.7734 36.7641 10.7053 36.6744 10.6107C36.5874 10.5149 36.4972 10.4156 36.4038 10.3128C36.3103 10.21 36.2343 10.1274 36.1758 10.0648C36.1999 10.1895 36.2212 10.3154 36.2399 10.4426C36.2599 10.5658 36.2769 10.6821 36.2907 10.7916C36.3032 10.8984 36.3136 10.9896 36.3219 11.0653L36.4753 13.2837L38.4361 12.3845Z" fill="black"/>
<path d="M42.2601 13.7893L40.2234 7.5137L40.9531 7.27688L42.7781 12.9001L45.5639 11.9959L45.7756 12.6484L42.2601 13.7893Z" fill="black"/>
<path d="M49.0138 11.8792L48.2587 12.0382L47.0385 6.24435L45.0071 6.67216L44.8676 6.00976L49.6767 4.99696L49.8162 5.65937L47.7936 6.08532L49.0138 11.8792Z" fill="black"/>
<path d="M57.4939 7.50309C57.5311 8.01018 57.5006 8.477 57.4022 8.90355C57.3035 9.32709 57.1377 9.69825 56.9047 10.017C56.6745 10.3326 56.3778 10.5852 56.0146 10.7747C55.6514 10.9643 55.2223 11.0772 54.7272 11.1136C54.2171 11.1511 53.7656 11.1028 53.3727 10.9687C52.9827 10.8344 52.6507 10.6265 52.3766 10.345C52.1055 10.0632 51.8917 9.71843 51.735 9.31061C51.5814 8.90257 51.4859 8.445 51.4487 7.93791C51.3993 7.2658 51.4671 6.66804 51.6519 6.14465C51.8367 5.62126 52.1438 5.20201 52.5731 4.88692C53.0055 4.5716 53.5623 4.38894 54.2434 4.33893C54.8945 4.29112 55.4523 4.39043 55.9169 4.63688C56.3845 4.8831 56.7509 5.25138 57.0162 5.74173C57.2842 6.22885 57.4435 6.81597 57.4939 7.50309ZM52.255 7.88776C52.296 8.44586 52.411 8.9231 52.6 9.3195C52.7889 9.71589 53.0551 10.0131 53.3985 10.2111C53.7448 10.4089 54.1716 10.4892 54.6787 10.452C55.1887 10.4145 55.5977 10.2729 55.9054 10.0271C56.2162 9.781 56.4346 9.44821 56.5606 9.02868C56.6867 8.60916 56.7292 8.12034 56.6883 7.56225C56.6259 6.7131 56.3987 6.06309 56.0066 5.61223C55.6173 5.15814 55.0461 4.95874 54.2929 5.01404C53.7829 5.0515 53.3708 5.19186 53.0568 5.43513C52.7429 5.67841 52.5197 6.00853 52.3875 6.42549C52.258 6.83924 52.2138 7.32666 52.255 7.88776Z" fill="black"/>
<path d="M68.3469 8.26391C68.247 9.00029 68.0293 9.59773 67.6938 10.0562C67.3588 10.5117 66.9194 10.8301 66.3756 11.0114C65.8352 11.1901 65.2028 11.2303 64.4783 11.132L62.703 10.8912L63.5899 4.35319L65.562 4.62073C66.2269 4.71092 66.7827 4.91081 67.2295 5.22039C67.6767 5.52699 67.9977 5.93639 68.1924 6.44858C68.3904 6.9582 68.4419 7.56331 68.3469 8.26391ZM67.5427 8.18215C67.6224 7.59483 67.5898 7.09703 67.4448 6.68873C67.3027 6.28083 67.055 5.95878 66.7014 5.72258C66.3512 5.4838 65.9034 5.3274 65.3578 5.25339L64.2622 5.10475L63.5518 10.3414L64.4775 10.467C65.3778 10.5891 66.0832 10.4586 66.5936 10.0755C67.1071 9.69274 67.4234 9.06163 67.5427 8.18215Z" fill="black"/>
<path d="M73.1629 12.9124L69.6137 11.9651L71.3152 5.59038L74.8645 6.53776L74.6899 7.1918L71.8819 6.44227L71.3314 8.50467L73.978 9.21113L73.8058 9.85645L71.1591 9.14998L70.5295 11.5089L73.3375 12.2584L73.1629 12.9124Z" fill="black"/>
<path d="M78.8212 13.1211C78.6797 13.4857 78.4677 13.7617 78.1852 13.949C77.9067 14.1345 77.5786 14.2315 77.201 14.2398C76.8234 14.2482 76.4144 14.1669 75.974 13.996C75.7412 13.9057 75.5254 13.809 75.3266 13.706C75.1277 13.603 74.9495 13.4967 74.792 13.3872C74.6344 13.2776 74.5017 13.1664 74.3938 13.0535L74.66 12.3678C74.8366 12.5364 75.0616 12.7173 75.3352 12.9106C75.6098 13.1011 75.9126 13.2606 76.2435 13.389C76.552 13.5087 76.8287 13.5693 77.0734 13.5707C77.3192 13.5693 77.5268 13.5127 77.696 13.4009C77.8692 13.2873 77.9982 13.1212 78.0831 12.9024C78.1647 12.6921 78.1865 12.4988 78.1484 12.3227C78.1113 12.1437 78.0071 11.9548 77.8358 11.756C77.6684 11.5554 77.4251 11.3174 77.106 11.0419C76.8811 10.8481 76.6903 10.6579 76.5336 10.4712C76.378 10.2817 76.2601 10.0907 76.1799 9.89826C76.0997 9.70577 76.0605 9.50336 76.0622 9.29103C76.0668 9.07979 76.1153 8.85497 76.2078 8.61656C76.3352 8.28841 76.5268 8.04004 76.7826 7.87147C77.0423 7.70119 77.3434 7.61149 77.6858 7.60238C78.0321 7.59155 78.3974 7.6607 78.7816 7.80984C79.1098 7.9372 79.4007 8.08562 79.6544 8.25509C79.911 8.42565 80.1355 8.60799 80.328 8.80212L79.8666 9.32982C79.681 9.15127 79.4753 8.9827 79.2496 8.82411C79.0268 8.66661 78.7835 8.5367 78.5199 8.43438C78.2562 8.33205 78.018 8.28478 77.8052 8.29256C77.5963 8.29862 77.417 8.35326 77.2672 8.45649C77.1174 8.55971 77.0049 8.70809 76.9298 8.90162C76.846 9.11759 76.8212 9.31451 76.8554 9.49239C76.8925 9.67135 76.9888 9.85557 77.1444 10.0451C77.3039 10.2328 77.5257 10.4512 77.8099 10.7003C78.1205 10.9725 78.3732 11.232 78.5679 11.4786C78.7638 11.7224 78.8862 11.9765 78.9353 12.2408C78.9855 12.5023 78.9475 12.7958 78.8212 13.1211Z" fill="black"/>
<path d="M82.4841 16.8882L79.2165 15.2098L82.2311 9.34087L85.4987 11.0193L85.1894 11.6215L82.6042 10.2935L81.6289 12.1923L84.0656 13.4439L83.7604 14.038L81.3237 12.7864L80.2082 14.9581L82.7934 16.2861L82.4841 16.8882Z" fill="black"/>
<path d="M86.1603 19.182L87.7375 13.1384L87.7081 13.1175C87.6464 13.225 87.5678 13.3538 87.4723 13.5037C87.3769 13.6536 87.2706 13.8161 87.1535 13.9913C87.0381 14.1639 86.9177 14.3386 86.7922 14.5151L84.3763 17.9139L83.7951 17.5008L87.6176 12.1231L88.5446 12.7819L87.0684 18.4654L87.0941 18.4837L92.0022 15.2396L92.9218 15.8933L89.0993 21.271L88.4814 20.8318L90.9286 17.3888C91.0419 17.2294 91.1576 17.0718 91.2759 16.9159C91.3958 16.7575 91.51 16.6098 91.6184 16.4728C91.7286 16.3334 91.8249 16.2135 91.9072 16.1133L91.8778 16.0924L86.6716 19.5454L86.1603 19.182Z" fill="black"/>
<path d="M96.7536 19.2849C97.3644 19.8781 97.6937 20.4308 97.7416 20.9428C97.7937 21.4548 97.6038 21.9331 97.172 22.3777C96.977 22.5784 96.7581 22.7369 96.5151 22.8532C96.2763 22.9694 96.0165 23.0253 95.7356 23.0209C95.4568 23.0143 95.1588 22.9346 94.8417 22.7818C94.5289 22.6289 94.1998 22.3847 93.8545 22.0493L93.2783 21.4896L91.4703 23.351L90.9199 22.8164L95.5171 18.0837L96.7536 19.2849ZM96.2459 19.704L95.6114 19.0877L93.7374 21.017L94.2521 21.517C94.5542 21.8104 94.8371 22.0223 95.1007 22.1525C95.3664 22.2848 95.6202 22.3279 95.8621 22.2818C96.1061 22.2336 96.3455 22.0886 96.5802 21.8469C96.8863 21.5319 97.0134 21.2002 96.9615 20.852C96.9117 20.5017 96.6732 20.119 96.2459 19.704Z" fill="black"/>
<path d="M97.5706 30.025L95.2505 27.1769L100.366 23.0098L102.686 25.8579L102.161 26.2855L100.326 24.0322L98.6706 25.3803L100.401 27.5042L99.8829 27.926L98.1528 25.8022L96.2599 27.3442L98.0954 29.5975L97.5706 30.025Z" fill="black"/>
<path d="M101.18 35.5071L100.711 34.7573L103.5 28.7681L103.48 28.7375C103.36 28.8234 103.223 28.9217 103.069 29.0325C102.917 29.1416 102.752 29.2554 102.574 29.3739C102.401 29.4933 102.221 29.6112 102.035 29.7278L98.8214 31.7392L98.4431 31.1349L104.036 27.634L104.502 28.3799L101.722 34.3481L101.738 34.3749C101.825 34.3139 101.947 34.2285 102.105 34.1187C102.266 34.0072 102.439 33.8886 102.623 33.7629C102.811 33.638 102.986 33.5245 103.149 33.4224L106.389 31.3942L106.773 32.0062L101.18 35.5071Z" fill="black"/>
<path d="M103.976 41.4296L103.664 40.7287L106.504 39.4642L105.095 36.2978L102.254 37.5623L101.942 36.8614L107.97 34.1783L108.282 34.8792L105.713 36.0226L107.123 39.1889L109.691 38.0456L110.003 38.7465L103.976 41.4296Z" fill="black"/>
<path d="M109.407 47.9085C108.916 48.0415 108.452 48.1003 108.014 48.0848C107.58 48.0685 107.184 47.9763 106.827 47.8082C106.473 47.6422 106.169 47.3989 105.913 47.0784C105.658 46.7579 105.466 46.3581 105.336 45.879C105.202 45.3853 105.164 44.9329 105.221 44.5216C105.278 44.1132 105.419 43.7477 105.643 43.4251C105.868 43.1054 106.166 42.8298 106.537 42.5985C106.908 42.37 107.339 42.1893 107.83 42.0563C108.481 41.8801 109.08 41.8329 109.629 41.9148C110.178 41.9967 110.648 42.2184 111.039 42.58C111.431 42.9445 111.716 43.4564 111.895 44.1156C112.066 44.7457 112.074 45.3122 111.921 45.8152C111.768 46.3211 111.476 46.7508 111.045 47.1045C110.618 47.4603 110.072 47.7283 109.407 47.9085ZM108.033 42.8384C107.493 42.9848 107.046 43.1884 106.693 43.4493C106.339 43.7103 106.098 44.0281 105.969 44.4029C105.841 44.7805 105.843 45.2147 105.976 45.7055C106.11 46.1991 106.327 46.5736 106.627 46.829C106.927 47.0873 107.296 47.2385 107.731 47.2824C108.167 47.3264 108.655 47.2752 109.195 47.1288C110.017 46.9061 110.612 46.5595 110.98 46.0888C111.352 45.6202 111.439 45.0215 111.242 44.2926C111.108 43.799 110.892 43.4211 110.593 43.1592C110.294 42.8972 109.928 42.7409 109.493 42.6903C109.063 42.6419 108.576 42.6912 108.033 42.8384Z" fill="black"/>
<path d="M110.308 53.0969C110.568 53.0747 110.78 53.099 110.943 53.1697C111.109 53.2401 111.234 53.3442 111.319 53.482C111.403 53.6227 111.453 53.7846 111.469 53.9674C111.484 54.1503 111.462 54.3167 111.402 54.4667C111.343 54.6198 111.237 54.745 111.086 54.8424C110.934 54.9399 110.729 54.9996 110.471 55.0215C110.219 55.0429 110.009 55.0185 109.84 54.9484C109.674 54.878 109.547 54.7725 109.46 54.632C109.373 54.4944 109.321 54.3343 109.306 54.1514C109.29 53.9685 109.314 53.8005 109.376 53.6472C109.439 53.4969 109.546 53.3731 109.698 53.2756C109.849 53.1782 110.053 53.1186 110.308 53.0969Z" fill="#EB455F"/>
</svg>
